<?xml version="1.0" encoding="UTF-8"?>
<!-- Converted by misc2svg (http://www.network-science.de/tools/misc2svg/) -->
<svg xmlns="http://www.w3.org/2000/svg" xmlns:xlink="http://www.w3.org/1999/xlink" width="344pt" height="313pt" viewBox="0 0 344 313" version="1.1">
<defs>
<clipPath id="clip1">
  <path d="M 0 312.5 L 343.75 312.5 L 343.75 0 L 0 0 L 0 312.5 Z M 0 312.5 "/>
</clipPath>
</defs>
<g id="misc2svg">
<g clip-path="url(#clip1)" clip-rule="nonzero">
<path style=" stroke:none;fill-rule: nonzero; fill: rgb(0%,0%,0%); fill-opacity: 1;" d="M 79.8125 87.75 L 78.75 88.375 L 77.6875 87.625 L 77.6875 39.5625 L 78.75 38.75 L 79.8125 39.375 L 79.8125 87.75 Z M 79.8125 87.75 "/>
<path style=" stroke:none;fill-rule: nonzero; fill: rgb(0%,0%,0%); fill-opacity: 1;" d="M 85.125 84.0625 L 87.25 84.0625 L 87.25 43.0625 L 85.125 43.0625 L 85.125 84.0625 Z M 85.125 84.0625 "/>
<path style=" stroke:none;fill-rule: nonzero; fill: rgb(0%,0%,0%); fill-opacity: 1;" d="M 121.6875 111.9375 L 121.6875 114.375 L 78.6875 89.5625 L 78.75 88.375 L 79.8125 87.75 L 121.6875 111.9375 Z M 121.6875 111.9375 "/>
<path style=" stroke:none;fill-rule: nonzero; fill: rgb(0%,0%,0%); fill-opacity: 1;" d="M 163.625 87.75 L 165.75 89 L 121.6875 114.375 L 121.6875 111.9375 L 163.625 87.75 Z M 163.625 87.75 "/>
<path style=" stroke:none;fill-rule: nonzero; fill: rgb(0%,0%,0%); fill-opacity: 1;" d="M 156.6875 83.125 L 157.75 85 L 122.25 105.5 L 121.1875 103.625 L 156.6875 83.125 Z M 156.6875 83.125 "/>
<path style=" stroke:none;fill-rule: nonzero; fill: rgb(0%,0%,0%); fill-opacity: 1;" d="M 163.625 39.375 L 164.6875 38.75 L 165.75 39.375 L 165.75 89 L 163.625 87.75 L 163.625 39.375 Z M 163.625 39.375 "/>
<path style=" stroke:none;fill-rule: nonzero; fill: rgb(0%,0%,0%); fill-opacity: 1;" d="M 121.6875 15.1875 L 121.6875 12.75 L 164.6875 37.5 L 164.6875 38.75 L 163.625 39.375 L 121.6875 15.1875 Z M 121.6875 15.1875 "/>
<path style=" stroke:none;fill-rule: nonzero; fill: rgb(0%,0%,0%); fill-opacity: 1;" d="M 121.1875 23.4375 L 122.25 21.625 L 157.75 42.125 L 156.6875 43.9375 L 121.1875 23.4375 Z M 121.1875 23.4375 "/>
<path style=" stroke:none;fill-rule: nonzero; fill: rgb(0%,0%,0%); fill-opacity: 1;" d="M 79.8125 39.375 L 78.75 38.75 L 78.625 37.625 L 121.6875 12.75 L 121.6875 15.1875 L 79.8125 39.375 Z M 79.8125 39.375 "/>
<path style=" stroke:none;fill-rule: nonzero; fill: rgb(0%,0%,0%); fill-opacity: 1;" d="M 20.632812 26.40625 C 20.632812 22.851562 21.589844 20.070312 23.503906 18.046875 C 25.417969 16.03125 27.890625 15.019531 30.925781 15.019531 C 32.902344 15.019531 34.6875 15.5 36.277344 16.445312 C 37.878906 17.382812 39.09375 18.707031 39.929688 20.410156 C 40.757812 22.105469 41.179688 24.023438 41.179688 26.171875 C 41.179688 28.351562 40.734375 30.292969 39.851562 32.011719 C 38.976562 33.730469 37.734375 35.035156 36.121094 35.917969 C 34.503906 36.804688 32.765625 37.246094 30.90625 37.246094 C 28.882812 37.246094 27.078125 36.757812 25.476562 35.78125 C 23.882812 34.804688 22.683594 33.472656 21.863281 31.777344 C 21.042969 30.085938 20.632812 28.296875 20.632812 26.40625 Z M 23.5625 26.464844 C 23.5625 29.042969 24.257812 31.085938 25.652344 32.578125 C 27.042969 34.0625 28.789062 34.804688 30.886719 34.804688 C 33.035156 34.804688 34.796875 34.058594 36.179688 32.558594 C 37.554688 31.050781 38.25 28.914062 38.25 26.152344 C 38.25 24.410156 37.945312 22.886719 37.351562 21.582031 C 36.765625 20.269531 35.898438 19.253906 34.753906 18.535156 C 33.621094 17.820312 32.351562 17.460938 30.945312 17.460938 C 28.921875 17.460938 27.1875 18.15625 25.730469 19.53125 C 24.285156 20.914062 23.5625 23.222656 23.5625 26.464844 Z M 23.5625 26.464844 "/>
<path style=" stroke:none;fill-rule: nonzero; fill: rgb(0%,0%,0%); fill-opacity: 1;" d="M 24.820312 106.53125 C 24.820312 102.976562 25.777344 100.195312 27.691406 98.171875 C 29.605469 96.15625 32.078125 95.144531 35.113281 95.144531 C 37.089844 95.144531 38.875 95.625 40.464844 96.570312 C 42.066406 97.507812 43.28125 98.832031 44.117188 100.535156 C 44.945312 102.230469 45.367188 104.148438 45.367188 106.296875 C 45.367188 108.476562 44.921875 110.417969 44.039062 112.136719 C 43.164062 113.855469 41.921875 115.160156 40.308594 116.042969 C 38.691406 116.929688 36.953125 117.371094 35.09375 117.371094 C 33.070312 117.371094 31.265625 116.882812 29.664062 115.90625 C 28.070312 114.929688 26.871094 113.597656 26.050781 111.902344 C 25.230469 110.210938 24.820312 108.421875 24.820312 106.53125 Z M 27.75 106.589844 C 27.75 109.167969 28.445312 111.210938 29.839844 112.703125 C 31.230469 114.1875 32.976562 114.929688 35.074219 114.929688 C 37.222656 114.929688 38.984375 114.183594 40.367188 112.683594 C 41.742188 111.175781 42.4375 109.039062 42.4375 106.277344 C 42.4375 104.535156 42.132812 103.011719 41.539062 101.707031 C 40.953125 100.394531 40.085938 99.378906 38.941406 98.660156 C 37.808594 97.945312 36.539062 97.585938 35.132812 97.585938 C 33.109375 97.585938 31.375 98.28125 29.917969 99.65625 C 28.472656 101.039062 27.75 103.347656 27.75 106.589844 Z M 27.75 106.589844 "/>
<path style=" stroke:none;fill-rule: nonzero; fill: rgb(0%,0%,0%); fill-opacity: 1;" d="M 43.4375 30.375 L 44 28.3125 L 78.625 37.625 L 78.75 38.75 L 77.6875 39.5625 L 43.4375 30.375 Z M 43.4375 30.375 "/>
<path style=" stroke:none;fill-rule: nonzero; fill: rgb(0%,0%,0%); fill-opacity: 1;" d="M 5.125 67.4375 L 2.5 67.5625 L 22.3125 37.125 L 24.0625 38.25 L 5.125 67.4375 Z M 5.125 67.4375 "/>
<path style=" stroke:none;fill-rule: nonzero; fill: rgb(0%,0%,0%); fill-opacity: 1;" d="M 27.25 94.75 L 25.625 96.125 L 2.5 67.5625 L 5.125 67.4375 L 27.25 94.75 Z M 27.25 94.75 "/>
<path style=" stroke:none;fill-rule: nonzero; fill: rgb(0%,0%,0%); fill-opacity: 1;" d="M 77.6875 87.625 L 78.75 88.375 L 78.6875 89.5625 L 47.8125 102.0625 L 47 100.0625 L 77.6875 87.625 Z M 77.6875 87.625 "/>
<path style=" stroke:none;fill-rule: nonzero; fill: rgb(0%,0%,0%); fill-opacity: 1;" d="M 220.527344 99.125 L 220.527344 77.640625 L 223.378906 77.640625 L 223.378906 86.46875 L 234.53125 86.46875 L 234.53125 77.640625 L 237.382812 77.640625 L 237.382812 99.125 L 234.53125 99.125 L 234.53125 89.007812 L 223.378906 89.007812 L 223.378906 99.125 L 220.527344 99.125 Z M 220.527344 99.125 "/>
<path style=" stroke:none;fill-rule: nonzero; fill: rgb(0%,0%,0%); fill-opacity: 1;" d="M 242.070312 99.125 L 242.070312 77.640625 L 244.980469 77.640625 L 256.269531 94.515625 L 256.269531 77.640625 L 258.984375 77.640625 L 258.984375 99.125 L 256.074219 99.125 L 244.804688 82.25 L 244.804688 99.125 L 242.070312 99.125 Z M 242.070312 99.125 "/>
<path style=" stroke:none;fill-rule: nonzero; fill: rgb(0%,0%,0%); fill-opacity: 1;" d="M 249.4375 39.3125 L 250.5625 38.75 L 251.6875 39.3125 L 255.375 74.8125 L 245.8125 74.8125 L 249.4375 39.3125 Z M 249.4375 39.3125 "/>
<path style=" stroke:none;fill-rule: nonzero; fill: rgb(0%,0%,0%); fill-opacity: 1;" d="M 207.625 15.1875 L 207.625 12.75 L 250.5625 37.5 L 250.5625 38.75 L 249.4375 39.3125 L 207.625 15.1875 Z M 207.625 15.1875 "/>
<path style=" stroke:none;fill-rule: nonzero; fill: rgb(0%,0%,0%); fill-opacity: 1;" d="M 165.75 39.375 L 164.6875 38.75 L 164.6875 37.5 L 207.625 12.75 L 207.625 15.1875 L 165.75 39.375 Z M 165.75 39.375 "/>
<path style=" stroke:none;fill-rule: nonzero; fill: rgb(0%,0%,0%); fill-opacity: 1;" d="M 300.199219 17.335938 L 303.050781 18.058594 C 302.449219 20.390625 301.375 22.175781 299.828125 23.410156 C 298.273438 24.636719 296.382812 25.246094 294.144531 25.246094 C 291.839844 25.246094 289.953125 24.777344 288.5 23.839844 C 287.054688 22.890625 285.953125 21.523438 285.199219 19.738281 C 284.441406 17.941406 284.066406 16.023438 284.066406 13.976562 C 284.066406 11.742188 284.484375 9.789062 285.335938 8.117188 C 286.195312 6.453125 287.410156 5.1875 288.988281 4.328125 C 290.5625 3.46875 292.296875 3.039062 294.203125 3.039062 C 296.351562 3.039062 298.152344 3.585938 299.613281 4.679688 C 301.082031 5.773438 302.101562 7.3125 302.679688 9.289062 L 299.886719 9.953125 C 299.378906 8.390625 298.648438 7.253906 297.699219 6.535156 C 296.761719 5.820312 295.574219 5.460938 294.144531 5.460938 C 292.488281 5.460938 291.109375 5.859375 290.003906 6.652344 C 288.894531 7.449219 288.113281 8.507812 287.660156 9.835938 C 287.214844 11.164062 286.996094 12.539062 286.996094 13.957031 C 286.996094 15.78125 287.253906 17.375 287.777344 18.742188 C 288.308594 20.109375 289.132812 21.132812 290.257812 21.808594 C 291.390625 22.472656 292.605469 22.804688 293.910156 22.804688 C 295.511719 22.804688 296.859375 22.351562 297.953125 21.4375 C 299.054688 20.515625 299.808594 19.148438 300.199219 17.335938 Z M 300.199219 17.335938 "/>
<path style=" stroke:none;fill-rule: nonzero; fill: rgb(0%,0%,0%); fill-opacity: 1;" d="M 306.625 24.875 L 306.625 3.390625 L 309.476562 3.390625 L 309.476562 12.21875 L 320.628906 12.21875 L 320.628906 3.390625 L 323.480469 3.390625 L 323.480469 24.875 L 320.628906 24.875 L 320.628906 14.757812 L 309.476562 14.757812 L 309.476562 24.875 L 306.625 24.875 Z M 306.625 24.875 "/>
<path style=" stroke:none;fill-rule: nonzero; fill: rgb(0%,0%,0%); fill-opacity: 1;" d="M 326.894531 26.972656 L 328.886719 26.71875 C 329.105469 27.84375 329.492188 28.648438 330.039062 29.140625 C 330.585938 29.640625 331.25 29.882812 332.03125 29.882812 C 332.96875 29.882812 333.753906 29.566406 334.394531 28.925781 C 335.027344 28.277344 335.351562 27.476562 335.351562 26.523438 C 335.351562 25.617188 335.046875 24.863281 334.453125 24.277344 C 333.867188 23.683594 333.113281 23.378906 332.207031 23.378906 C 331.824219 23.378906 331.355469 23.457031 330.800781 23.613281 L 331.015625 21.875 C 331.140625 21.890625 331.253906 21.894531 331.347656 21.894531 C 332.175781 21.894531 332.933594 21.675781 333.613281 21.230469 C 334.285156 20.792969 334.628906 20.113281 334.628906 19.199219 C 334.628906 18.472656 334.378906 17.871094 333.886719 17.402344 C 333.386719 16.925781 332.757812 16.679688 331.992188 16.679688 C 331.21875 16.679688 330.574219 16.925781 330.058594 17.402344 C 329.550781 17.886719 329.222656 18.613281 329.082031 19.589844 L 327.109375 19.238281 C 327.34375 17.910156 327.890625 16.886719 328.75 16.152344 C 329.609375 15.425781 330.671875 15.058594 331.953125 15.058594 C 332.820312 15.058594 333.632812 15.25 334.375 15.625 C 335.117188 16.007812 335.683594 16.519531 336.074219 17.167969 C 336.464844 17.824219 336.660156 18.511719 336.660156 19.238281 C 336.660156 19.941406 336.46875 20.582031 336.09375 21.152344 C 335.726562 21.714844 335.175781 22.164062 334.433594 22.5 C 335.378906 22.726562 336.117188 23.183594 336.640625 23.886719 C 337.171875 24.582031 337.441406 25.441406 337.441406 26.464844 C 337.441406 27.871094 336.921875 29.074219 335.898438 30.058594 C 334.882812 31.035156 333.59375 31.523438 332.03125 31.523438 C 330.609375 31.523438 329.433594 31.105469 328.496094 30.253906 C 327.566406 29.410156 327.035156 28.316406 326.894531 26.972656 Z M 326.894531 26.972656 "/>
<path style=" stroke:none;fill-rule: nonzero; fill: rgb(0%,0%,0%); fill-opacity: 1;" d="M 281.6875 19.5625 L 282.75 21.4375 L 251.6875 39.3125 L 250.5625 38.75 L 250.5625 37.5 L 281.6875 19.5625 Z M 281.6875 19.5625 "/>
<path style=" stroke:none;fill-rule: nonzero; fill: rgb(0%,0%,0%); fill-opacity: 1;" d="M 300.199219 116.585938 L 303.050781 117.308594 C 302.449219 119.640625 301.375 121.425781 299.828125 122.660156 C 298.273438 123.886719 296.382812 124.496094 294.144531 124.496094 C 291.839844 124.496094 289.953125 124.027344 288.5 123.089844 C 287.054688 122.140625 285.953125 120.773438 285.199219 118.988281 C 284.441406 117.191406 284.066406 115.273438 284.066406 113.226562 C 284.066406 110.992188 284.484375 109.039062 285.335938 107.367188 C 286.195312 105.703125 287.410156 104.4375 288.988281 103.578125 C 290.5625 102.71875 292.296875 102.289062 294.203125 102.289062 C 296.351562 102.289062 298.152344 102.835938 299.613281 103.929688 C 301.082031 105.023438 302.101562 106.5625 302.679688 108.539062 L 299.886719 109.203125 C 299.378906 107.640625 298.648438 106.503906 297.699219 105.785156 C 296.761719 105.070312 295.574219 104.710938 294.144531 104.710938 C 292.488281 104.710938 291.109375 105.109375 290.003906 105.902344 C 288.894531 106.699219 288.113281 107.757812 287.660156 109.085938 C 287.214844 110.414062 286.996094 111.789062 286.996094 113.207031 C 286.996094 115.03125 287.253906 116.625 287.777344 117.992188 C 288.308594 119.359375 289.132812 120.382812 290.257812 121.058594 C 291.390625 121.722656 292.605469 122.054688 293.910156 122.054688 C 295.511719 122.054688 296.859375 121.601562 297.953125 120.6875 C 299.054688 119.765625 299.808594 118.398438 300.199219 116.585938 Z M 300.199219 116.585938 "/>
<path style=" stroke:none;fill-rule: nonzero; fill: rgb(0%,0%,0%); fill-opacity: 1;" d="M 306.625 124.125 L 306.625 102.640625 L 309.476562 102.640625 L 309.476562 111.46875 L 320.628906 111.46875 L 320.628906 102.640625 L 323.480469 102.640625 L 323.480469 124.125 L 320.628906 124.125 L 320.628906 114.007812 L 309.476562 114.007812 L 309.476562 124.125 L 306.625 124.125 Z M 306.625 124.125 "/>
<path style=" stroke:none;fill-rule: nonzero; fill: rgb(0%,0%,0%); fill-opacity: 1;" d="M 326.894531 126.222656 L 328.886719 125.96875 C 329.105469 127.09375 329.492188 127.898438 330.039062 128.390625 C 330.585938 128.890625 331.25 129.132812 332.03125 129.132812 C 332.96875 129.132812 333.753906 128.816406 334.394531 128.175781 C 335.027344 127.527344 335.351562 126.726562 335.351562 125.773438 C 335.351562 124.867188 335.046875 124.113281 334.453125 123.527344 C 333.867188 122.933594 333.113281 122.628906 332.207031 122.628906 C 331.824219 122.628906 331.355469 122.707031 330.800781 122.863281 L 331.015625 121.125 C 331.140625 121.140625 331.253906 121.144531 331.347656 121.144531 C 332.175781 121.144531 332.933594 120.925781 333.613281 120.480469 C 334.285156 120.042969 334.628906 119.363281 334.628906 118.449219 C 334.628906 117.722656 334.378906 117.121094 333.886719 116.652344 C 333.386719 116.175781 332.757812 115.929688 331.992188 115.929688 C 331.21875 115.929688 330.574219 116.175781 330.058594 116.652344 C 329.550781 117.136719 329.222656 117.863281 329.082031 118.839844 L 327.109375 118.488281 C 327.34375 117.160156 327.890625 116.136719 328.75 115.402344 C 329.609375 114.675781 330.671875 114.308594 331.953125 114.308594 C 332.820312 114.308594 333.632812 114.5 334.375 114.875 C 335.117188 115.257812 335.683594 115.769531 336.074219 116.417969 C 336.464844 117.074219 336.660156 117.761719 336.660156 118.488281 C 336.660156 119.191406 336.46875 119.832031 336.09375 120.402344 C 335.726562 120.964844 335.175781 121.414062 334.433594 121.75 C 335.378906 121.976562 336.117188 122.433594 336.640625 123.136719 C 337.171875 123.832031 337.441406 124.691406 337.441406 125.714844 C 337.441406 127.121094 336.921875 128.324219 335.898438 129.308594 C 334.882812 130.285156 333.59375 130.773438 332.03125 130.773438 C 330.609375 130.773438 329.433594 130.355469 328.496094 129.503906 C 327.566406 128.660156 327.035156 127.566406 326.894531 126.222656 Z M 326.894531 126.222656 "/>
<path style=" stroke:none;fill-rule: nonzero; fill: rgb(0%,0%,0%); fill-opacity: 1;" d="M 282.9375 105.8125 L 281.875 107.625 L 262.75 96.625 L 263.8125 94.75 L 282.9375 105.8125 Z M 282.9375 105.8125 "/>
<path style=" stroke:none;fill-rule: nonzero; fill: rgb(0%,0%,0%); fill-opacity: 1;" d="M 80.1875 217.6875 L 81.25 217 L 82.3125 217.5625 L 82.3125 266 L 81.25 266.5625 L 80.1875 265.75 L 80.1875 217.6875 Z M 80.1875 217.6875 "/>
<path style=" stroke:none;fill-rule: nonzero; fill: rgb(0%,0%,0%); fill-opacity: 1;" d="M 87.625 262.3125 L 89.75 262.3125 L 89.75 221.25 L 87.625 221.25 L 87.625 262.3125 Z M 87.625 262.3125 "/>
<path style=" stroke:none;fill-rule: nonzero; fill: rgb(0%,0%,0%); fill-opacity: 1;" d="M 124.1875 190.9375 L 124.1875 193.375 L 82.3125 217.5625 L 81.25 217 L 81.1875 215.8125 L 124.1875 190.9375 Z M 124.1875 190.9375 "/>
<path style=" stroke:none;fill-rule: nonzero; fill: rgb(0%,0%,0%); fill-opacity: 1;" d="M 168.25 216.375 L 166.125 217.5625 L 124.1875 193.375 L 124.1875 190.9375 L 168.25 216.375 Z M 168.25 216.375 "/>
<path style=" stroke:none;fill-rule: nonzero; fill: rgb(0%,0%,0%); fill-opacity: 1;" d="M 160.25 220.375 L 159.1875 222.1875 L 123.6875 201.6875 L 124.75 199.875 L 160.25 220.375 Z M 160.25 220.375 "/>
<path style=" stroke:none;fill-rule: nonzero; fill: rgb(0%,0%,0%); fill-opacity: 1;" d="M 168.25 266 L 167.1875 266.5625 L 166.125 266 L 166.125 217.5625 L 168.25 216.375 L 168.25 266 Z M 168.25 266 "/>
<path style=" stroke:none;fill-rule: nonzero; fill: rgb(0%,0%,0%); fill-opacity: 1;" d="M 124.1875 292.625 L 124.1875 290.1875 L 166.125 266 L 167.1875 266.5625 L 167.1875 267.8125 L 124.1875 292.625 Z M 124.1875 292.625 "/>
<path style=" stroke:none;fill-rule: nonzero; fill: rgb(0%,0%,0%); fill-opacity: 1;" d="M 124.75 283.6875 L 123.6875 281.875 L 159.1875 261.375 L 160.25 263.1875 L 124.75 283.6875 Z M 124.75 283.6875 "/>
<path style=" stroke:none;fill-rule: nonzero; fill: rgb(0%,0%,0%); fill-opacity: 1;" d="M 81.125 267.75 L 81.25 266.5625 L 82.3125 266 L 124.1875 290.1875 L 124.1875 292.625 L 81.125 267.75 Z M 81.125 267.75 "/>
<path style=" stroke:none;fill-rule: nonzero; fill: rgb(0%,0%,0%); fill-opacity: 1;" d="M 23.132812 279.90625 C 23.132812 276.351562 24.089844 273.570312 26.003906 271.546875 C 27.917969 269.53125 30.390625 268.519531 33.425781 268.519531 C 35.402344 268.519531 37.1875 269 38.777344 269.945312 C 40.378906 270.882812 41.59375 272.207031 42.429688 273.910156 C 43.257812 275.605469 43.679688 277.523438 43.679688 279.671875 C 43.679688 281.851562 43.234375 283.792969 42.351562 285.511719 C 41.476562 287.230469 40.234375 288.535156 38.621094 289.417969 C 37.003906 290.304688 35.265625 290.746094 33.40625 290.746094 C 31.382812 290.746094 29.578125 290.257812 27.976562 289.28125 C 26.382812 288.304688 25.183594 286.972656 24.363281 285.277344 C 23.542969 283.585938 23.132812 281.796875 23.132812 279.90625 Z M 26.0625 279.964844 C 26.0625 282.542969 26.757812 284.585938 28.152344 286.078125 C 29.542969 287.5625 31.289062 288.304688 33.386719 288.304688 C 35.535156 288.304688 37.296875 287.558594 38.679688 286.058594 C 40.054688 284.550781 40.75 282.414062 40.75 279.652344 C 40.75 277.910156 40.445312 276.386719 39.851562 275.082031 C 39.265625 273.769531 38.398438 272.753906 37.253906 272.035156 C 36.121094 271.320312 34.851562 270.960938 33.445312 270.960938 C 31.421875 270.960938 29.6875 271.65625 28.230469 273.03125 C 26.785156 274.414062 26.0625 276.722656 26.0625 279.964844 Z M 26.0625 279.964844 "/>
<path style=" stroke:none;fill-rule: nonzero; fill: rgb(0%,0%,0%); fill-opacity: 1;" d="M 27.320312 199.71875 C 27.320312 196.164062 28.277344 193.382812 30.191406 191.359375 C 32.105469 189.34375 34.578125 188.332031 37.613281 188.332031 C 39.589844 188.332031 41.375 188.8125 42.964844 189.757812 C 44.566406 190.695312 45.78125 192.019531 46.617188 193.722656 C 47.445312 195.417969 47.867188 197.335938 47.867188 199.484375 C 47.867188 201.664062 47.421875 203.605469 46.539062 205.324219 C 45.664062 207.042969 44.421875 208.347656 42.808594 209.230469 C 41.191406 210.117188 39.453125 210.558594 37.59375 210.558594 C 35.570312 210.558594 33.765625 210.070312 32.164062 209.09375 C 30.570312 208.117188 29.371094 206.785156 28.550781 205.089844 C 27.730469 203.398438 27.320312 201.609375 27.320312 199.71875 Z M 30.25 199.777344 C 30.25 202.355469 30.945312 204.398438 32.339844 205.890625 C 33.730469 207.375 35.476562 208.117188 37.574219 208.117188 C 39.722656 208.117188 41.484375 207.371094 42.867188 205.871094 C 44.242188 204.363281 44.9375 202.226562 44.9375 199.464844 C 44.9375 197.722656 44.632812 196.199219 44.039062 194.894531 C 43.453125 193.582031 42.585938 192.566406 41.441406 191.847656 C 40.308594 191.132812 39.039062 190.773438 37.632812 190.773438 C 35.609375 190.773438 33.875 191.46875 32.417969 192.84375 C 30.972656 194.226562 30.25 196.535156 30.25 199.777344 Z M 30.25 199.777344 "/>
<path style=" stroke:none;fill-rule: nonzero; fill: rgb(0%,0%,0%); fill-opacity: 1;" d="M 46.375 277 L 45.8125 275 L 80.1875 265.75 L 81.25 266.5625 L 81.125 267.75 L 46.375 277 Z M 46.375 277 "/>
<path style=" stroke:none;fill-rule: nonzero; fill: rgb(0%,0%,0%); fill-opacity: 1;" d="M 5 237.75 L 7.625 237.875 L 26.75 267.3125 L 24.9375 268.5 L 5 237.75 Z M 5 237.75 "/>
<path style=" stroke:none;fill-rule: nonzero; fill: rgb(0%,0%,0%); fill-opacity: 1;" d="M 27.9375 209.4375 L 29.5625 210.8125 L 7.625 237.875 L 5 237.75 L 27.9375 209.4375 Z M 27.9375 209.4375 "/>
<path style=" stroke:none;fill-rule: nonzero; fill: rgb(0%,0%,0%); fill-opacity: 1;" d="M 81.1875 215.8125 L 81.25 217 L 80.1875 217.6875 L 49.625 205.3125 L 50.4375 203.375 L 81.1875 215.8125 Z M 81.1875 215.8125 "/>
<path style=" stroke:none;fill-rule: nonzero; fill: rgb(0%,0%,0%); fill-opacity: 1;" d="M 223.027344 227.75 L 223.027344 206.265625 L 225.878906 206.265625 L 225.878906 215.09375 L 237.03125 215.09375 L 237.03125 206.265625 L 239.882812 206.265625 L 239.882812 227.75 L 237.03125 227.75 L 237.03125 217.632812 L 225.878906 217.632812 L 225.878906 227.75 L 223.027344 227.75 Z M 223.027344 227.75 "/>
<path style=" stroke:none;fill-rule: nonzero; fill: rgb(0%,0%,0%); fill-opacity: 1;" d="M 244.570312 227.75 L 244.570312 206.265625 L 247.480469 206.265625 L 258.769531 223.140625 L 258.769531 206.265625 L 261.484375 206.265625 L 261.484375 227.75 L 258.574219 227.75 L 247.304688 210.875 L 247.304688 227.75 L 244.570312 227.75 Z M 244.570312 227.75 "/>
<path style=" stroke:none;fill-rule: nonzero; fill: rgb(0%,0%,0%); fill-opacity: 1;" d="M 254.1875 266 L 253.0625 266.5625 L 251.9375 266 L 248.3125 230.5625 L 257.875 230.5625 L 254.1875 266 Z M 254.1875 266 "/>
<path style=" stroke:none;fill-rule: nonzero; fill: rgb(0%,0%,0%); fill-opacity: 1;" d="M 210.125 292.625 L 210.125 290.1875 L 251.9375 266 L 253.0625 266.5625 L 253.0625 267.8125 L 210.125 292.625 Z M 210.125 292.625 "/>
<path style=" stroke:none;fill-rule: nonzero; fill: rgb(0%,0%,0%); fill-opacity: 1;" d="M 167.1875 267.8125 L 167.1875 266.5625 L 168.25 266 L 210.125 290.1875 L 210.125 292.625 L 167.1875 267.8125 Z M 167.1875 267.8125 "/>
<path style=" stroke:none;fill-rule: nonzero; fill: rgb(0%,0%,0%); fill-opacity: 1;" d="M 302.699219 294.773438 L 305.550781 295.496094 C 304.949219 297.832031 303.875 299.613281 302.328125 300.847656 C 300.773438 302.074219 298.882812 302.683594 296.644531 302.683594 C 294.339844 302.683594 292.453125 302.214844 291 301.277344 C 289.554688 300.332031 288.453125 298.964844 287.699219 297.175781 C 286.941406 295.378906 286.566406 293.460938 286.566406 291.414062 C 286.566406 289.179688 286.984375 287.226562 287.835938 285.554688 C 288.695312 283.890625 289.910156 282.625 291.488281 281.765625 C 293.0625 280.90625 294.796875 280.476562 296.703125 280.476562 C 298.851562 280.476562 300.652344 281.023438 302.113281 282.117188 C 303.582031 283.210938 304.601562 284.75 305.179688 286.726562 L 302.386719 287.390625 C 301.878906 285.828125 301.148438 284.691406 300.199219 283.972656 C 299.261719 283.261719 298.074219 282.898438 296.644531 282.898438 C 294.988281 282.898438 293.609375 283.300781 292.503906 284.089844 C 291.394531 284.886719 290.613281 285.945312 290.160156 287.273438 C 289.714844 288.601562 289.496094 289.980469 289.496094 291.394531 C 289.496094 293.222656 289.753906 294.8125 290.277344 296.179688 C 290.808594 297.546875 291.632812 298.574219 292.757812 299.246094 C 293.890625 299.910156 295.105469 300.242188 296.410156 300.242188 C 298.011719 300.242188 299.359375 299.789062 300.453125 298.875 C 301.554688 297.953125 302.308594 296.585938 302.699219 294.773438 Z M 302.699219 294.773438 "/>
<path style=" stroke:none;fill-rule: nonzero; fill: rgb(0%,0%,0%); fill-opacity: 1;" d="M 309.125 302.3125 L 309.125 280.828125 L 311.976562 280.828125 L 311.976562 289.65625 L 323.128906 289.65625 L 323.128906 280.828125 L 325.980469 280.828125 L 325.980469 302.3125 L 323.128906 302.3125 L 323.128906 292.195312 L 311.976562 292.195312 L 311.976562 302.3125 L 309.125 302.3125 Z M 309.125 302.3125 "/>
<path style=" stroke:none;fill-rule: nonzero; fill: rgb(0%,0%,0%); fill-opacity: 1;" d="M 329.394531 304.414062 L 331.386719 304.160156 C 331.605469 305.28125 331.992188 306.085938 332.539062 306.582031 C 333.085938 307.078125 333.75 307.324219 334.53125 307.324219 C 335.46875 307.324219 336.253906 307.003906 336.894531 306.367188 C 337.527344 305.714844 337.851562 304.914062 337.851562 303.964844 C 337.851562 303.054688 337.546875 302.304688 336.953125 301.71875 C 336.367188 301.121094 335.613281 300.820312 334.707031 300.820312 C 334.324219 300.820312 333.855469 300.898438 333.300781 301.054688 L 333.515625 299.316406 C 333.640625 299.328125 333.753906 299.335938 333.847656 299.335938 C 334.675781 299.335938 335.433594 299.113281 336.113281 298.671875 C 336.785156 298.230469 337.128906 297.550781 337.128906 296.640625 C 337.128906 295.910156 336.878906 295.3125 336.386719 294.84375 C 335.886719 294.363281 335.257812 294.121094 334.492188 294.121094 C 333.71875 294.121094 333.074219 294.363281 332.558594 294.84375 C 332.050781 295.324219 331.722656 296.054688 331.582031 297.03125 L 329.609375 296.679688 C 329.84375 295.351562 330.390625 294.324219 331.25 293.59375 C 332.109375 292.863281 333.171875 292.5 334.453125 292.5 C 335.320312 292.5 336.132812 292.6875 336.875 293.066406 C 337.617188 293.445312 338.183594 293.957031 338.574219 294.609375 C 338.964844 295.261719 339.160156 295.949219 339.160156 296.679688 C 339.160156 297.382812 338.96875 298.019531 338.59375 298.59375 C 338.226562 299.152344 337.675781 299.601562 336.933594 299.941406 C 337.878906 300.164062 338.617188 300.625 339.140625 301.328125 C 339.671875 302.019531 339.941406 302.878906 339.941406 303.90625 C 339.941406 305.3125 339.421875 306.511719 338.398438 307.5 C 337.382812 308.476562 336.09375 308.964844 334.53125 308.964844 C 333.109375 308.964844 331.933594 308.542969 330.996094 307.695312 C 330.066406 306.847656 329.535156 305.753906 329.394531 304.414062 Z M 329.394531 304.414062 "/>
<path style=" stroke:none;fill-rule: nonzero; fill: rgb(0%,0%,0%); fill-opacity: 1;" d="M 285.4375 284 L 284.375 285.875 L 253.0625 267.8125 L 253.0625 266.5625 L 254.1875 266 L 285.4375 284 Z M 285.4375 284 "/>
<path style=" stroke:none;fill-rule: nonzero; fill: rgb(0%,0%,0%); fill-opacity: 1;" d="M 302.699219 195.585938 L 305.550781 196.308594 C 304.949219 198.640625 303.875 200.425781 302.328125 201.660156 C 300.773438 202.886719 298.882812 203.496094 296.644531 203.496094 C 294.339844 203.496094 292.453125 203.027344 291 202.089844 C 289.554688 201.140625 288.453125 199.773438 287.699219 197.988281 C 286.941406 196.191406 286.566406 194.273438 286.566406 192.226562 C 286.566406 189.992188 286.984375 188.039062 287.835938 186.367188 C 288.695312 184.703125 289.910156 183.4375 291.488281 182.578125 C 293.0625 181.71875 294.796875 181.289062 296.703125 181.289062 C 298.851562 181.289062 300.652344 181.835938 302.113281 182.929688 C 303.582031 184.023438 304.601562 185.5625 305.179688 187.539062 L 302.386719 188.203125 C 301.878906 186.640625 301.148438 185.503906 300.199219 184.785156 C 299.261719 184.070312 298.074219 183.710938 296.644531 183.710938 C 294.988281 183.710938 293.609375 184.109375 292.503906 184.902344 C 291.394531 185.699219 290.613281 186.757812 290.160156 188.085938 C 289.714844 189.414062 289.496094 190.789062 289.496094 192.207031 C 289.496094 194.03125 289.753906 195.625 290.277344 196.992188 C 290.808594 198.359375 291.632812 199.382812 292.757812 200.058594 C 293.890625 200.722656 295.105469 201.054688 296.410156 201.054688 C 298.011719 201.054688 299.359375 200.601562 300.453125 199.6875 C 301.554688 198.765625 302.308594 197.398438 302.699219 195.585938 Z M 302.699219 195.585938 "/>
<path style=" stroke:none;fill-rule: nonzero; fill: rgb(0%,0%,0%); fill-opacity: 1;" d="M 309.125 203.125 L 309.125 181.640625 L 311.976562 181.640625 L 311.976562 190.46875 L 323.128906 190.46875 L 323.128906 181.640625 L 325.980469 181.640625 L 325.980469 203.125 L 323.128906 203.125 L 323.128906 193.007812 L 311.976562 193.007812 L 311.976562 203.125 L 309.125 203.125 Z M 309.125 203.125 "/>
<path style=" stroke:none;fill-rule: nonzero; fill: rgb(0%,0%,0%); fill-opacity: 1;" d="M 329.394531 205.222656 L 331.386719 204.96875 C 331.605469 206.09375 331.992188 206.898438 332.539062 207.390625 C 333.085938 207.890625 333.75 208.132812 334.53125 208.132812 C 335.46875 208.132812 336.253906 207.816406 336.894531 207.175781 C 337.527344 206.527344 337.851562 205.726562 337.851562 204.773438 C 337.851562 203.867188 337.546875 203.113281 336.953125 202.527344 C 336.367188 201.933594 335.613281 201.628906 334.707031 201.628906 C 334.324219 201.628906 333.855469 201.707031 333.300781 201.863281 L 333.515625 200.125 C 333.640625 200.140625 333.753906 200.144531 333.847656 200.144531 C 334.675781 200.144531 335.433594 199.925781 336.113281 199.480469 C 336.785156 199.042969 337.128906 198.363281 337.128906 197.449219 C 337.128906 196.722656 336.878906 196.121094 336.386719 195.652344 C 335.886719 195.175781 335.257812 194.929688 334.492188 194.929688 C 333.71875 194.929688 333.074219 195.175781 332.558594 195.652344 C 332.050781 196.136719 331.722656 196.863281 331.582031 197.839844 L 329.609375 197.488281 C 329.84375 196.160156 330.390625 195.136719 331.25 194.402344 C 332.109375 193.675781 333.171875 193.308594 334.453125 193.308594 C 335.320312 193.308594 336.132812 193.5 336.875 193.875 C 337.617188 194.257812 338.183594 194.769531 338.574219 195.417969 C 338.964844 196.074219 339.160156 196.761719 339.160156 197.488281 C 339.160156 198.191406 338.96875 198.832031 338.59375 199.402344 C 338.226562 199.964844 337.675781 200.414062 336.933594 200.75 C 337.878906 200.976562 338.617188 201.433594 339.140625 202.136719 C 339.671875 202.832031 339.941406 203.691406 339.941406 204.714844 C 339.941406 206.121094 339.421875 207.324219 338.398438 208.308594 C 337.382812 209.285156 336.09375 209.773438 334.53125 209.773438 C 333.109375 209.773438 331.933594 209.355469 330.996094 208.503906 C 330.066406 207.660156 329.535156 206.566406 329.394531 205.222656 Z M 329.394531 205.222656 "/>
<path style=" stroke:none;fill-rule: nonzero; fill: rgb(0%,0%,0%); fill-opacity: 1;" d="M 284.1875 197.8125 L 285.25 199.625 L 266.3125 210.5625 L 265.25 208.75 L 284.1875 197.8125 Z M 284.1875 197.8125 "/>
</g>
</g>
</svg>