<?xml version="1.0" encoding="UTF-8" standalone="no"?>
<svg
 xmlns="http://www.w3.org/2000/svg"
 xmlns:xlink="http://www.w3.org/1999/xlink"
 width="480"
 height="365">
<path
 d="m 98.94547,345.87493 0,-32.21191 4.2627,0 0,13.22753 16.74316,0 0,-13.22753 4.2627,0 0,32.21191 -4.2627,0 0,-15.18311 -16.74316,0 0,15.18311 z"
 id="H"
 fill="#000" />
<path
 d="m 131.53092,345.87493 0,-32.21191 4.37256,0 16.91894,25.29052 0,-25.29052 4.08692,0 0,32.21191 -4.37256,0 -16.91895,-25.3125 0,25.3125 z"
 id="N"
 fill="#000" />
<use
 transform="translate(255.15547,-117.94841)"
 xlink:href="#N" />
<path
 d="m 67.05,136.137 -46.5,51.6 21.3,66 67.8,14.4 m 109.8,-23.4 -7.2,69 -49.5,10.5 m -6.6,-107.7 -21.3,-66 -67.8,-14.4 m 0,0 L 51.50614,88.883665 M 30.45,188.637 l 18.9,58.5 m 19.5,-101.4 60.3,12.9 m -23.4,100.5 41.1,-45.6 m -37.2,54.6 46.5,-51.6 m -46.5,51.6 23.1,39.6 m 23.4,-91.2 63.3,28.2 m -15.6,62.1 6,-57 m 189.6,-60 0,-48.9 m 60,103.8 -41.4,-24 m -37.2,0 -41.4,24 -60,-34.5 -60,34.5 M 62.804194,51.087968 91.951273,18.840137"
 style="fill:none;stroke:#000;stroke-width:3" />
<path
 d="m 30.373433,67.659987 c -10e-6,-5.34666 1.43554,-9.53245 4.30664,-12.557381 2.87108,-3.02487 6.57713,-4.53732 11.11816,-4.537349 2.97361,3e-5 5.65427,0.710479 8.04199,2.13135 2.38767,1.420929 4.20774,3.40212 5.46021,5.9436 1.25241,2.541529 1.87863,5.4236 1.87866,8.64624 -3e-5,3.26662 -0.65921,6.18898 -1.97754,8.76709 -1.31839,2.57813 -3.18606,4.53003 -5.60303,5.85571 -2.41701,1.32569 -5.02443,1.98853 -7.82226,1.98853 -3.03224,0 -5.7422,-0.73242 -8.12988,-2.19727 -2.38771,-1.464841 -4.19679,-3.464351 -5.42725,-5.998531 -1.23047,-2.53417 -1.84571,-5.214829 -1.8457,-8.041989 z m 4.39453,0.0659 c -1e-5,3.88185 1.04369,6.939709 3.1311,9.17359 2.08739,2.23389 4.7058,3.35083 7.85523,3.35083 3.20798,0 5.84836,-1.12793 7.92114,-3.38379 2.07272,-2.25585 3.1091,-5.45653 3.10913,-9.60205 -3e-5,-2.62205 -0.44314,-4.91087 -1.32935,-6.86646 -0.88625,-1.95554 -2.18264,-3.47165 -3.88916,-4.54834 -1.70656,-1.07663 -3.62184,-1.61496 -5.74585,-1.61499 -3.01759,3e-5 -5.61402,1.03641 -7.7893,3.10913 -2.1753,2.07278 -3.26295,5.53347 -3.26294,10.38208 z"
 fill="#000" />
</svg>
