<?xml version="1.0" encoding="UTF-8"?>
<svg width="577.68pt" version="1.1" xmlns="http://www.w3.org/2000/svg" height="534.24pt" viewBox="0 0 577.68 534.24" xmlns:xlink="http://www.w3.org/1999/xlink">
 <defs>
  <clipPath id="Clip0">
   <path d="M0 0 L566.963 0 L566.963 532.079 L0 532.079 L0 0 Z" transform="translate(8.0342, 0.960476)"/>
  </clipPath>
 </defs>
 <g id="Background">
  <g id="Group1" clip-path="url(#Clip0)">
   <path style="fill:#000000; fill-rule:evenodd;stroke:none;" d="M0 51.906 L0 0 L7.04566 0 L34.3078 40.7529 L34.3078 0 L40.8932 0 L40.8932 51.906 L33.8475 51.906 L6.58539 11.1177 L6.58539 51.906 L0 51.906 Z" transform="translate(447.378, 291.928)"/>
   <path style="fill:#000000; fill-rule:evenodd;stroke:none;" d="M0 51.906 L0 0 L6.86863 0 L6.86863 21.3147 L33.8475 21.3147 L33.8475 0 L40.7161 0 L40.7161 51.906 L33.8475 51.906 L33.8475 27.4401 L6.86863 27.4401 L6.86863 51.906 L0 51.906 Z" transform="translate(500.243, 291.928)"/>
   <path style="fill:#000000; fill-rule:evenodd;stroke:none;" d="M27.5295 36.8554 L27.5295 41.7638 L0.0378282 41.7638 C0 40.5343 0.198598 39.3521 0.633623 38.2172 C1.33344 36.3447 2.45411 34.5005 3.99561 32.6847 C5.53711 30.8689 7.76424 28.7693 10.677 26.3861 C15.1975 22.6788 18.2521 19.7423 19.8409 17.5765 C21.4297 15.4108 22.2241 13.3633 22.2241 11.434 C22.2241 9.41009 21.5006 7.70303 20.0537 6.3128 C18.6068 4.92256 16.7201 4.22745 14.3936 4.22745 C11.9348 4.22745 9.96773 4.96512 8.49243 6.44047 C7.01713 7.91582 6.27003 9.95861 6.25111 12.5688 L1.00245 12.0298 C1.36182 8.11443 2.71417 5.13063 5.05952 3.07838 C7.40487 1.02613 10.5541 0 14.5071 0 C18.498 0 21.6567 1.10651 23.9831 3.31954 C26.3095 5.53256 27.4727 8.2752 27.4727 11.5475 C27.4727 13.212 27.1323 14.8481 26.4514 16.4558 C25.7705 18.0636 24.6404 19.7565 23.061 21.5344 C21.4817 23.3124 18.8574 25.7524 15.188 28.8544 C12.1239 31.4269 10.1569 33.1717 9.28683 34.0891 C8.41678 35.0065 7.69804 35.9286 7.13062 36.8554 L27.5295 36.8554 Z" transform="translate(547.468, 322)"/>
   <path style="fill:#000000; fill-rule:evenodd;stroke:none;" d="M0 51.906 L0 0 L6.86863 0 L6.86863 51.906 L0 51.906 Z" transform="translate(8.0342, 344.512)"/>
   <path style="fill:#000000; fill-rule:evenodd;stroke:none;" d="M0 27.5463 C0 18.9307 2.31315 12.1857 6.93945 7.31145 C11.5657 2.43715 17.5374 0 24.8545 0 C29.6461 0 33.9655 1.14481 37.8129 3.43443 C41.6603 5.72406 44.593 8.91654 46.6111 13.0119 C48.6292 17.1073 49.6383 21.7514 49.6383 26.9444 C49.6383 32.2081 48.5761 36.9172 46.4518 41.0716 C44.3275 45.2259 41.318 48.3712 37.4234 50.5074 C33.5289 52.6436 29.3274 53.7117 24.8191 53.7117 C19.9332 53.7117 15.5665 52.5315 11.7192 50.1711 C7.87179 47.8106 4.95675 44.5886 2.97405 40.5051 C0.991349 36.4215 0 32.1019 0 27.5463 Z M7.08107 27.6525 C7.08107 33.9077 8.76282 38.8351 12.1263 42.4347 C15.4898 46.0344 19.709 47.8342 24.7837 47.8342 C29.9529 47.8342 34.2075 46.0167 37.5474 42.3816 C40.8873 38.7465 42.5572 33.589 42.5572 26.909 C42.5572 22.6838 41.8432 18.9956 40.4152 15.8444 C38.9872 12.6932 36.8983 10.2502 34.1484 8.51527 C31.3986 6.78035 28.3125 5.91289 24.89 5.91289 C20.0276 5.91289 15.8439 7.5829 12.3388 10.9229 C8.83363 14.2629 7.08107 19.8395 7.08107 27.6525 Z" transform="translate(169.005, 27.6096)"/>
   <path style="fill:#000000; fill-rule:evenodd;stroke:none;" d="M0 27.5463 C0 18.9307 2.31315 12.1857 6.93945 7.31145 C11.5657 2.43715 17.5374 0 24.8545 0 C29.6461 0 33.9655 1.14481 37.8129 3.43443 C41.6603 5.72406 44.593 8.91654 46.6111 13.0119 C48.6292 17.1073 49.6383 21.7514 49.6383 26.9444 C49.6383 32.2081 48.5761 36.9172 46.4518 41.0716 C44.3275 45.2259 41.318 48.3712 37.4234 50.5074 C33.5289 52.6436 29.3274 53.7117 24.8191 53.7117 C19.9332 53.7117 15.5665 52.5315 11.7192 50.1711 C7.87179 47.8106 4.95675 44.5886 2.97405 40.5051 C0.991349 36.4215 0 32.1019 0 27.5463 Z M7.08107 27.6525 C7.08107 33.9077 8.76282 38.8351 12.1263 42.4347 C15.4898 46.0344 19.709 47.8342 24.7837 47.8342 C29.9529 47.8342 34.2075 46.0167 37.5474 42.3816 C40.8873 38.7465 42.5572 33.589 42.5572 26.909 C42.5572 22.6838 41.8432 18.9956 40.4152 15.8444 C38.9872 12.6932 36.8983 10.2502 34.1484 8.51527 C31.3986 6.78035 28.3125 5.91289 24.89 5.91289 C20.0276 5.91289 15.8439 7.5829 12.3388 10.9229 C8.83363 14.2629 7.08107 19.8395 7.08107 27.6525 Z" transform="translate(169.005, 448.999)"/>
   <path style="fill:none;stroke:#000000; stroke-width:5.28228; stroke-linecap:round; stroke-linejoin:bevel; stroke-dasharray:none;" d="M91.2379 0 L0 52.8237 " transform="translate(466.754, 161.593)"/>
   <path style="fill:none;stroke:#000000; stroke-width:5.28228; stroke-linecap:round; stroke-linejoin:bevel; stroke-dasharray:none;" d="M0 0 L0 67.7104 " transform="translate(466.754, 214.416)"/>
   <path style="fill:none;stroke:#000000; stroke-width:5.28228; stroke-linecap:round; stroke-linejoin:bevel; stroke-dasharray:none;" d="M91.2379 52.8237 L0 0 " transform="translate(375.516, 161.593)"/>
   <path style="fill:none;stroke:#000000; stroke-width:5.28228; stroke-linecap:round; stroke-linejoin:bevel; stroke-dasharray:none;" d="M91.2379 0 L0 52.8237 " transform="translate(284.278, 161.593)"/>
   <path style="fill:none;stroke:#000000; stroke-width:5.28228; stroke-linecap:round; stroke-linejoin:bevel; stroke-dasharray:none;" d="M91.2379 52.8237 L0 0 " transform="translate(193.04, 161.593)"/>
   <path style="fill:none;stroke:#000000; stroke-width:5.28228; stroke-linecap:round; stroke-linejoin:bevel; stroke-dasharray:none;" d="M77.072 44.42 L0 0 " transform="translate(190.639, 182.482)"/>
   <path style="fill:none;stroke:#000000; stroke-width:5.28228; stroke-linecap:round; stroke-linejoin:bevel; stroke-dasharray:none;" d="M91.2379 0 L0 52.8237 " transform="translate(101.802, 161.593)"/>
   <path style="fill:none;stroke:#000000; stroke-width:5.28228; stroke-linecap:round; stroke-linejoin:bevel; stroke-dasharray:none;" d="M0 0 L0 105.407 " transform="translate(101.802, 214.416)"/>
   <path style="fill:none;stroke:#000000; stroke-width:5.28228; stroke-linecap:round; stroke-linejoin:bevel; stroke-dasharray:none;" d="M0 0 L0 89.08 " transform="translate(121.01, 222.58)"/>
   <path style="fill:none;stroke:#000000; stroke-width:5.28228; stroke-linecap:round; stroke-linejoin:bevel; stroke-dasharray:none;" d="M0 0 L91.2379 52.5836 " transform="translate(101.802, 319.824)"/>
   <path style="fill:none;stroke:#000000; stroke-width:5.28228; stroke-linecap:round; stroke-linejoin:bevel; stroke-dasharray:none;" d="M0 52.5836 L91.2379 0 " transform="translate(193.04, 319.824)"/>
   <path style="fill:none;stroke:#000000; stroke-width:5.28228; stroke-linecap:round; stroke-linejoin:bevel; stroke-dasharray:none;" d="M0 44.6601 L77.072 0 " transform="translate(190.639, 307.098)"/>
   <path style="fill:none;stroke:#000000; stroke-width:5.28228; stroke-linecap:round; stroke-linejoin:bevel; stroke-dasharray:none;" d="M0 0 L0 105.407 " transform="translate(284.278, 214.416)"/>
   <path style="fill:none;stroke:#000000; stroke-width:5.28228; stroke-linecap:round; stroke-linejoin:bevel; stroke-dasharray:none;" d="M72.5101 0 L0 41.7788 " transform="translate(29.2922, 319.824)"/>
   <path style="fill:none;stroke:#000000; stroke-width:5.28228; stroke-linecap:round; stroke-linejoin:bevel; stroke-dasharray:none;" d="M54.2625 31.214 L0 0 " transform="translate(101.802, 3.60162)"/>
   <path style="fill:none;stroke:#000000; stroke-width:5.28228; stroke-linecap:round; stroke-linejoin:bevel; stroke-dasharray:none;" d="M0 67.9505 L0 0 " transform="translate(193.04, 93.6421)"/>
   <path style="fill:none;stroke:#000000; stroke-width:5.28228; stroke-linecap:round; stroke-linejoin:bevel; stroke-dasharray:none;" d="M0 0 L54.0224 31.214 " transform="translate(230.256, 499.184)"/>
   <path style="fill:none;stroke:#000000; stroke-width:5.28228; stroke-linecap:round; stroke-linejoin:bevel; stroke-dasharray:none;" d="M0 0 L0 67.7104 " transform="translate(193.04, 372.407)"/>
  </g>
 </g>
</svg>
