<?xml version="1.0" encoding="UTF-8" standalone="no"?>
<!-- Created with Inkscape (http://www.inkscape.org/) -->
<svg xmlns:svg="http://www.w3.org/2000/svg" xmlns="http://www.w3.org/2000/svg" version="1.0" width="471" height="538" id="svg2439"><title> - https://upload.wikimedia.org/wikipedia/commons/5/56/Ketamine.svg </title>
  <defs id="defs2442"/>
  <g transform="translate(1.1645022,-1.1645022)" id="g2450">
    <path d="M 314.74797,527.63417 C 302.4435,523.04334 296.37817,509.53059 300.4048,495.67948 C 303.51264,484.9889 311.4087,479.04392 322.5,479.04392 C 329.82096,479.04392 335.3672,481.37632 339.65272,486.25725 C 343.85813,491.04694 345.45876,496.099 345.43254,504.5 C 345.38995,518.14921 337.06322,527.66593 324.34305,528.60342 C 320.75346,528.86798 317.05298,528.49418 314.74797,527.63417 z M 330.80245,520.29817 C 336.08078,516.35733 337.46887,513.35889 337.84454,505.0865 C 338.13674,498.65216 337.82812,496.5834 336.05855,493.11478 C 333.25413,487.61765 328.8889,485.00748 322.5,485.00748 C 313.62259,485.00748 307.86387,490.43014 306.59667,499.98276 C 304.81959,513.37909 312.66428,523.66565 323.86424,522.62531 C 326.26457,522.40235 329.38676,521.35513 330.80245,520.29817 z M 61.783887,476.00587 L 8.5,445.23145 L 8.5,383.5 L 8.5,321.76855 L 61.782684,290.99483 L 115.06537,260.22111 L 165.98913,289.61055 C 193.9972,305.77475 217.27,318.98242 217.70645,318.96094 C 218.60043,318.91693 275.59996,220.17632 275.32069,219.15546 C 275.22207,218.79496 262.14248,196 246.25494,168.5 L 217.36851,118.5 L 165.18425,118.24108 L 113,117.98216 L 113,115.49108 L 113,113 L 165.25,112.9558 L 217.5,112.9116 L 247.39675,60.955802 L 277.2935,9 L 338.99616,9 L 400.69882,9 L 431.42273,62.191376 C 457.42308,107.205 461.99328,115.69925 461.14912,117.44138 C 460.60048,118.57362 446.87994,142.45 430.65901,170.5 L 401.16643,221.5 L 340.88122,222 L 280.59602,222.5 L 252.30106,271.5 L 224.0061,320.5 L 265.00305,320.76109 L 306,321.02219 L 306,323.51109 L 306,326 L 264,326 L 222,326 L 222.00437,377.75 L 222.00874,429.5 L 259.25437,450.93044 C 279.73947,462.71718 296.64896,472.46614 296.83102,472.59479 C 297.59163,473.13227 294.82949,476.99621 293.71482,476.95403 C 293.04667,476.92874 276.75,467.77025 257.5,456.60182 L 222.5,436.29559 L 222,440.87245 C 221.55709,444.92669 221.06261,445.69392 217.66962,447.59143 L 213.83925,449.73355 L 249.91962,470.52282 C 269.76383,481.95692 286,491.60586 286,491.96491 C 286,492.32397 285.38433,493.45972 284.63184,494.48881 C 283.34373,496.25041 281.06847,495.09184 245.74126,474.68576 L 208.21884,453.01165 L 161.64331,479.89597 L 115.06777,506.78028 L 61.783887,476.00587 z M 165.5,471.10883 L 215.5,442.2462 L 215.5,383.49862 L 215.5,324.75105 L 165.26686,295.77708 L 115.03371,266.80311 L 64.766856,295.84694 L 14.5,324.89076 L 14.5,383.49887 L 14.5,442.10697 L 64.5,471.03057 C 92,486.93855 114.725,499.95806 115,499.96282 C 115.275,499.96758 138,486.98328 165.5,471.10883 z M 426.59682,166.07159 L 455.71466,115.64319 L 443.25449,94.071594 C 436.4014,82.207217 423.33198,59.5625 414.21133,43.75 L 397.62833,15 L 339.00483,15 L 280.38133,15 L 251.44067,65.181959 C 235.5233,92.782037 222.59067,115.66654 222.70148,116.0364 C 222.93887,116.82872 277.47832,211.44817 279.60547,214.75805 L 281.05665,217.01609 L 339.26781,216.75805 L 397.47897,216.5 L 426.59682,166.07159 z M 291,198 L 291,195 L 339,195 L 387,195 L 387,198 L 387,201 L 339,201 L 291,201 L 291,198 z M 243.52865,115.64461 C 242.50916,114.89914 241.94391,113.66164 242.27253,112.89461 C 244.11865,108.58554 288.71374,32.59542 289.56243,32.312523 C 290.12257,32.125808 291.35874,32.541832 292.30947,33.237021 C 293.88023,34.385587 291.86774,38.267013 270.26903,75.745909 C 257.19606,98.43061 246.24851,116.99289 245.94113,116.99541 C 245.63375,116.99793 244.54813,116.39007 243.52865,115.64461 z M 407.73097,75.745909 C 386.13226,38.267013 384.11977,34.385587 385.69053,33.237021 C 386.64126,32.541832 387.87743,32.125808 388.43757,32.312523 C 389.28626,32.59542 433.88135,108.58554 435.72747,112.89461 C 436.24611,114.10518 433.64881,117.00847 432.05887,116.99541 C 431.75149,116.99289 420.80394,98.43061 407.73097,75.745909 z M 379.20869,398.88485 C 365.4161,374.89093 362.15285,368.52075 363.08113,367.40224 C 363.7212,366.63101 364.82588,366 365.53599,366 C 366.72171,366 401,424.03992 401,426.04758 C 401,426.79278 397.80078,429.03686 396.81574,428.98261 C 396.64208,428.97305 388.71891,415.42905 379.20869,398.88485 z M 319,323 L 319,299 L 322.75,299.03927 C 326.48554,299.07838 326.54723,299.14854 338.75,317.23708 L 351,335.39563 L 351,317.19782 L 351,299 L 354.5,299 L 358,299 L 358,323 L 358,347 L 354.15343,347 L 350.30685,347 L 338.15663,328.75 L 326.00642,310.5 L 326.00321,328.75 L 326,347 L 322.5,347 L 319,347 L 319,323 z M 367,323 L 367,299 L 371,299 L 375,299 L 375,308.5 L 375,318 L 387,318 L 399,318 L 399,308.5 L 399,299 L 402.5,299 L 406,299 L 406,323 L 406,347 L 402.5,347 L 399,347 L 399,336 L 399,325 L 387,325 L 375,325 L 375,336 L 375,347 L 371,347 L 367,347 L 367,323 z M 59,139.4057 C 57.075,138.57188 54.263797,136.70655 52.752882,135.26051 C 46.318024,129.10194 43.931592,113.15686 48.076947,104.01798 C 50.821208,97.967967 52.620274,96.129737 58.5,93.368034 C 67.770914,89.013493 78.962926,91.088085 84.250021,98.141154 C 87.447316,102.40639 88.617624,105.995 86.817388,106.01365 C 86.092824,106.02116 84.556373,106.28064 83.403052,106.59026 C 81.743643,107.03575 81.029978,106.48659 79.982743,103.95834 C 76.187522,94.795865 61.438748,94.73382 55.765763,103.85646 C 52.631147,108.89719 52.477734,122.76884 55.5,127.8869 C 61.191816,137.52572 75.279965,137.25029 80.045004,127.40703 C 82.353087,122.63917 82.589134,122.51309 86.455405,123.98304 C 89.020988,124.95848 89.028866,124.99515 87.472776,128.7194 C 85.388117,133.70869 82.354383,136.86951 77.5,139.10996 C 72.617366,141.36344 63.843598,141.50369 59,139.4057 z M 95,116 L 95,92 L 98.5,92 L 102,92 L 102,116 L 102,140 L 98.5,140 L 95,140 L 95,116 z" id="path2456" style="fill:#e6e6e6;fill-opacity:1"/>
    <path d="M 316.34536,527.89004 C 310.65206,526.56078 303.61572,520.1791 301.37539,514.31289 C 297.59491,504.41385 299.74301,492.20036 306.44073,485.51279 C 316.53421,475.43461 334.14944,477.38995 341.48341,489.40261 C 346.92243,498.31145 346.10937,513.38903 339.8026,520.57204 C 334.08761,527.08106 325.00995,529.91303 316.34536,527.89004 z M 331.71835,520.20055 C 336.37274,516.88633 338.46924,511.66612 338.44398,503.45393 C 338.40727,491.51871 332.67632,485 322.22015,485 C 312.55382,485 307.48648,490.01211 306.38228,500.66525 C 305.3495,510.62925 308.79774,518.63389 315.41519,521.634 C 319.74974,523.59913 327.95918,522.87732 331.71835,520.20055 z M 61.5,475.65295 L 9.5,445.48506 L 9.5,383.50076 L 9.5,321.51647 L 61.927007,291.219 C 90.76186,274.55539 114.89496,261.05168 115.55612,261.21076 C 116.21727,261.36984 139.20012,274.44268 166.62911,290.2615 C 194.0581,306.08033 216.89964,319.13033 217.38809,319.2615 C 217.87655,319.39268 231.24587,297.05612 247.09771,269.62471 L 275.91922,219.74942 L 274.20961,216.52621 C 273.26933,214.75345 260.125,191.86751 245,165.66857 L 217.5,118.03414 L 165.75,118.01707 L 114,118 L 114,115.5 L 114,113 L 165.76397,113 L 217.52795,113 L 245.93643,63.75 C 261.56109,36.6625 275.19795,13.2625 276.24055,11.75 L 278.13619,9 L 339.05391,9 L 399.97162,9 L 402.38851,12.75 C 407.77715,21.110944 461.33333,114.54228 461.33333,115.58209 C 461.33333,116.19858 447.66204,140.39482 430.95269,169.3515 L 400.57205,222 L 340.53602,222.0124 L 280.5,222.0248 L 252.5,270.55103 C 237.1,297.24045 224.35,319.50987 224.16667,320.03863 C 223.95691,320.6436 239.06376,321 264.91667,321 L 306,321 L 306,323.5 L 306,326 L 264,326 L 222,326 L 222,377.90652 L 222,429.81304 L 258.75,451.0009 C 278.9625,462.65422 295.65359,472.33737 295.84131,472.51902 C 296.39759,473.0573 294.92651,477 294.16938,477 C 293.78667,477 277.50449,467.77494 257.98677,456.49987 L 222.5,435.99973 L 222.19489,440.50766 C 221.91517,444.64045 221.55856,445.18456 217.90957,447.04613 C 215.72045,448.16294 214.15202,449.43696 214.42416,449.87729 C 214.6963,450.31762 230.86786,459.86279 250.36096,471.08877 C 283.0338,489.90491 285.72194,491.65593 284.76603,493.49983 C 284.19571,494.59992 283.62566,495.62688 283.49925,495.78196 C 283.37284,495.93704 266.481,486.35624 245.96184,474.49131 C 225.44267,462.62637 208.07598,453.1406 207.36918,453.41183 C 206.66239,453.68305 185.79031,465.62634 160.98678,479.95248 C 136.18324,494.27861 115.35182,505.95969 114.69472,505.91043 C 114.03762,505.86116 90.1,492.2453 61.5,475.65295 z M 166.4137,471 L 215.91942,442.5 L 215.91942,383.5 L 215.91942,324.5 L 166.41322,296 C 139.18481,280.325 116.31454,267.36637 115.5904,267.20304 C 114.86626,267.03971 91.824677,279.87945 64.386888,295.73581 L 14.5,324.56554 L 14.5,383.50041 L 14.5,442.43528 L 64,471.16175 C 91.225,486.9613 114.26679,499.80086 115.20399,499.69411 C 116.14118,499.58735 139.18555,486.675 166.4137,471 z M 426.76567,166.32532 L 456.01885,115.65063 L 428.81413,68.575315 C 413.85154,42.683892 400.6848,19.816212 399.55471,17.758249 L 397.5,14.016497 L 339,14.016497 L 280.5,14.016497 L 278.44529,17.758249 C 277.3152,19.816212 264.14846,42.683892 249.18587,68.575315 L 221.98115,115.65063 L 251.23433,166.32532 L 280.48751,217 L 339,217 L 397.51249,217 L 426.76567,166.32532 z M 291.36539,199.50981 C 291.04674,198.67941 291.04674,197.32059 291.36539,196.49019 C 291.87272,195.16812 297.82345,195.01269 339.22238,195.24019 L 386.5,195.5 L 386.5,198 L 386.5,200.5 L 339.22238,200.75981 C 297.82345,200.98731 291.87272,200.83188 291.36539,199.50981 z M 243.64989,115.50544 C 241.91391,114.21776 243.26173,111.60099 265.49961,73.084739 C 286.94358,35.943541 289.38032,32.133171 291.09972,33.053368 C 292.14487,33.612718 293,34.465479 293,34.948392 C 293,36.007969 248.19218,113.99554 246.61049,115.68888 C 245.75495,116.60482 245.07525,116.5627 243.64989,115.50544 z M 430.66044,114.81692 C 426.41101,108.13455 385,35.702063 385,34.951715 C 385,34.466974 385.85513,33.612718 386.90028,33.053368 C 388.61968,32.133171 391.05642,35.943541 412.50039,73.08474 C 425.5353,95.661345 436.04267,114.2305 435.85011,114.34952 C 435.65755,114.46855 434.74261,115.14371 433.8169,115.84989 C 432.38447,116.94262 431.91437,116.78878 430.66044,114.81692 z M 379.16953,398.25 C 363.8333,371.58717 362.23008,368.37029 363.71992,367.25 C 364.63421,366.5625 365.64184,366 365.9591,366 C 366.27636,366 374.35982,379.54301 383.92235,396.09557 C 401.35061,426.26356 402.05036,427.92036 397.39074,427.98469 C 396.78065,427.99311 388.58111,414.6125 379.16953,398.25 z M 319,323 L 319,299 L 322.44867,299 C 325.79987,299 326.24502,299.51135 338.19867,317.09213 L 350.5,335.18426 L 350.77256,317.09213 L 351.04512,299 L 354.52256,299 L 358,299 L 358,323 L 358,347 L 354.25,346.97742 C 350.5015,346.95484 350.49519,346.94756 338.5,328.82069 L 326.5,310.68655 L 326.22744,328.84327 L 325.95488,347 L 322.47744,347 L 319,347 L 319,323 z M 368,323 L 368,299 L 371,299 L 374,299 L 374,309 L 374,319 L 386.5,319 L 399,319 L 399,309 L 399,299 L 402.5,299 L 406,299 L 406,323 L 406,347 L 402.5,347 L 399,347 L 399,336 L 399,325 L 386.5,325 L 374,325 L 374,336 L 374,347 L 371,347 L 368,347 L 368,323 z M 61.036535,139.82591 C 55.469357,138.2286 51.913533,135.05282 49.29972,129.3435 C 44.211429,118.22921 45.297911,106.35132 52.11081,98.611453 C 58.729643,91.092062 69.057519,89.086274 78.379408,93.509799 C 82.588124,95.506966 87.559426,102.09978 86.647879,104.47523 C 85.783856,106.72684 81.264608,106.40906 80.51394,104.04392 C 80.17248,102.96808 78.532629,100.94308 76.869827,99.54392 C 72.956561,96.251124 65.139934,96.007634 60.191858,99.024398 C 50.534471,104.91235 50.534471,127.08765 60.191858,132.9756 C 67.50126,137.43203 77.685595,134.47512 80.841836,126.98012 C 82.178311,123.80644 82.888007,123.15722 84.5,123.63366 C 88.298328,124.75631 88.554215,125.89133 86.06628,130.58113 C 81.417421,139.34432 71.773226,142.90642 61.036535,139.82591 z M 95,116 L 95,92 L 98,92 L 101,92 L 101,116 L 101,140 L 98,140 L 95,140 L 95,116 z" id="path2454" style="fill:#8c8c8c;fill-opacity:1"/>
    <path d="M 312.20372,525.87181 C 304.56136,522.08893 300.12338,514.061 300.04389,503.87573 C 299.89725,485.08553 316.86198,473.73366 332.84177,481.92917 C 341.14169,486.18593 344.47972,492.53251 344.49136,504.07842 C 344.4992,511.86245 344.22174,513.11259 341.49513,517.57842 C 335.72526,527.02872 322.24925,530.84424 312.20372,525.87181 z M 333.64702,518.84773 C 339.77549,512.92681 340.78852,498.81213 335.64304,491.03679 C 328.69494,480.53749 310.32991,482.94996 307.04041,494.7941 C 305.58296,500.04173 305.75493,509.49146 307.37684,513.28212 C 311.80149,523.62319 325.66424,526.56016 333.64702,518.84773 z M 63,476.05804 C 34.675,459.65556 10.9375,445.71466 10.25,445.07825 C 9.2763194,444.17693 9.003385,430.61127 9.0153128,383.71057 C 9.0237348,350.59476 9.3612348,323.00753 9.7653128,322.40563 C 10.169391,321.80372 34.02425,307.73232 62.776111,291.13585 L 115.05222,260.96044 L 165.27611,289.92229 C 192.89925,305.85131 216.175,319.13698 217,319.44599 C 218.12518,319.86743 225.72315,307.49376 247.40613,269.92811 C 269.95555,230.86138 276.6811,219.94485 277.98947,220.28699 C 278.91193,220.52822 279.66667,220.19716 279.66667,219.5513 C 279.66667,218.90544 278.82696,218.40468 277.80065,218.43851 C 276.36863,218.4857 269.21193,206.87097 247.02984,168.5 L 218.12504,118.5 L 166.06252,118.24108 L 114,117.98216 L 114,115.5 L 114,113.01784 L 166.1425,112.75892 L 218.28499,112.5 L 247.87267,61.265504 L 277.46034,10.031008 L 339.01053,10.031008 L 400.56073,10.031008 L 427.53036,56.716624 C 442.36366,82.393713 456.00787,106.046 457.85082,109.27727 L 461.20165,115.1523 L 458.51336,114.82615 C 456.10284,114.5337 452.82696,109.30796 426.80846,64.25 L 397.79185,14 L 339,14 L 280.20815,14 L 251.16294,64.25 C 228.65251,103.19442 221.69201,114.48616 220.22553,114.43851 C 219.18482,114.40468 218.33333,114.88236 218.33333,115.5 C 218.33333,116.11764 219.15076,116.59532 220.14984,116.56149 C 221.51715,116.51521 229.11166,128.86432 250.86125,166.5 L 279.75617,216.5 L 339,216.5 L 398.24383,216.5 L 427.11037,166.5 C 452.39259,122.70843 456.29584,116.46003 458.54547,116.17808 L 461.11403,115.85615 L 459.10434,119.67808 C 457.99901,121.78013 444.33582,145.55 428.74168,172.5 L 400.38872,221.5 L 340.10449,222 L 279.82026,222.5 L 252.64141,269.57256 C 237.69303,295.46247 224.7466,317.73747 223.87156,319.07256 L 222.28057,321.5 L 263.64029,321.22841 L 305,320.95683 L 305,323.47841 L 305,326 L 263,326 L 221,326 L 221,377.84396 L 221,429.68791 L 257.25,450.49687 C 277.1875,461.94179 294.0669,471.81998 294.75978,472.4484 C 295.77282,473.3672 295.77282,473.89706 294.75978,475.15369 C 293.65557,476.52342 289.05441,474.14084 257.5,455.85982 L 221.5,435.00325 L 220.97802,439.94027 C 220.69094,442.65563 220.24094,445.04657 219.97802,445.25348 C 219.71511,445.46039 217.98033,446.55976 216.12296,447.69653 L 212.74593,449.76339 L 219.62296,453.75666 C 223.40533,455.95296 239.55,465.28382 255.5,474.49192 C 271.45,483.70001 284.62309,491.34187 284.77354,491.47383 C 285.30392,491.93902 283.77593,495 283.01333,495 C 282.58834,495 265.87399,485.55143 245.87032,474.00319 C 225.86664,462.45494 208.91482,453.00494 208.19961,453.00319 C 207.48439,453.00143 186.25299,464.925 161.01871,479.5 C 135.78443,494.075 114.9946,505.97316 114.8191,505.94036 C 114.64359,505.90755 91.325,492.46051 63,476.05804 z M 165.70239,471.75 C 193.57061,455.6625 216.62571,442.57509 216.93594,442.66687 C 217.24617,442.75864 217.38031,416.441 217.23401,384.18323 L 216.96802,325.53272 L 219.23401,323.67958 C 220.48031,322.66036 220.9375,322.11705 220.25,322.47224 C 219.5625,322.82743 218.97148,322.52898 218.93661,321.80902 C 218.90175,321.08906 218.46033,321.5285 217.95569,322.78555 C 217.11304,324.88455 216.85294,324.95451 214.76907,323.6427 C 213.52108,322.85709 190.58133,309.56927 163.79184,294.11422 L 115.08368,266.01413 L 64.818392,295.06526 C 31.18147,314.50593 13.917741,323.95025 12.632499,323.61415 C 11.190881,323.23716 10.997216,323.39722 11.85595,324.25595 C 13.488459,325.88846 13.488459,441.11154 11.85595,442.74405 C 10.997216,443.60278 11.190762,443.76288 12.632023,443.38598 C 13.917949,443.0497 31.058034,452.45646 64.526073,471.86629 C 92.011733,487.80663 114.6199,500.88277 114.76645,500.92437 C 114.913,500.96596 137.83417,487.8375 165.70239,471.75 z M 379.67841,398.48551 C 370.42654,382.29085 363.1406,368.58152 363.48743,368.02034 C 363.83426,367.45915 364.69326,367 365.39631,367 C 366.09936,367 374.1728,379.98998 383.33729,395.86662 C 398.26288,421.72385 401.01583,427 399.58179,427 C 399.35177,427 398.56427,427.20933 397.83179,427.46517 C 396.9457,427.77467 390.87043,418.07624 379.67841,398.48551 z M 320,323 L 320,299 L 322.85154,299 C 325.44104,299 326.83311,300.70007 338,317.5 C 344.76331,327.675 350.68011,336 351.14846,336 C 351.61681,336 352,327.675 352,317.5 L 352,299 L 354.5,299 L 357,299 L 357,323 L 357,347 L 354.14846,347 C 351.55896,347 350.16689,345.29993 339,328.5 C 332.23669,318.325 326.31989,310 325.85154,310 C 325.38319,310 325,318.325 325,328.5 L 325,347 L 322.5,347 L 320,347 L 320,323 z M 368,323 L 368,299 L 371,299 L 374,299 L 374,309 L 374,319 L 387,319 L 400,319 L 400,309 C 400,299 400,299 402.5,299 L 405,299 L 405,323 L 405,347 L 402.53275,347 C 400.07272,347 400.06468,346.96711 399.78275,335.75 L 399.5,324.5 L 386.75,324.22012 L 374,323.94025 L 374,335.47012 L 374,347 L 371,347 L 368,347 L 368,323 z M 292,198 C 292,196.02837 292.66667,196 339,196 C 385.33333,196 386,196.02837 386,198 C 386,199.97163 385.33333,200 339,200 C 292.66667,200 292,199.97163 292,198 z M 58.422318,138.58159 C 54.359449,136.81247 49.591696,130.90862 48.014516,125.69374 C 47.316926,123.38718 46.760503,118.42751 46.77802,114.67224 C 46.852121,98.786502 58.478554,89.428381 74.424212,92.419804 C 80.711996,93.5994 89.173491,103.00743 85.844302,105.11739 C 83.361269,106.69107 81.497058,106.01996 80.197758,103.08464 C 78.294128,98.784039 74.333592,96.591528 68.5,96.608883 C 57.823008,96.640646 52.605048,103.00632 52.605048,116 C 52.605048,125.82641 55.243782,131.29972 61.308667,134.0532 C 66.698448,136.50018 69.384202,136.47652 74.63258,133.93582 C 77.675736,132.46265 79.41247,130.75212 80.698305,127.96162 C 82.477359,124.10073 84.226051,123.22316 86.839528,124.87966 C 87.927952,125.56954 87.805602,126.45709 86.186846,129.61435 C 83.806163,134.25769 80.520473,137.48013 76.6849,138.93339 C 72.796001,140.40685 62.142848,140.20163 58.422318,138.58159 z M 96,116 L 96,92 L 98.5,92 L 101,92 L 101,116 L 101,140 L 98.5,140 L 96,140 L 96,116 z M 243.38759,114.56766 C 242.84377,113.15049 288.01043,33.814466 289.65515,33.297872 C 290.11982,33.151924 291.10111,33.413119 291.83581,33.878305 C 292.85306,34.522397 287.60659,44.405886 269.83581,75.322735 C 257.00111,97.651986 245.92338,115.93906 245.21862,115.96069 C 244.51385,115.98231 243.68989,115.35545 243.38759,114.56766 z M 408.16419,75.322735 C 390.39341,44.405886 385.14694,34.522397 386.16419,33.878305 C 386.89889,33.413119 387.88018,33.151924 388.34485,33.297872 C 389.98957,33.814466 435.15623,113.15049 434.61241,114.56766 C 434.31011,115.35545 433.48615,115.98231 432.78138,115.96069 C 432.07662,115.93906 420.99889,97.651986 408.16419,75.322735 z" id="path2452" style="fill:#333333;fill-opacity:1"/>
  </g>
</svg>