<?xml version="1.0" encoding="UTF-8"?>
<svg xmlns="http://www.w3.org/2000/svg" xmlns:xlink="http://www.w3.org/1999/xlink" width="99pt" height="99pt" viewBox="0 0 99 99" version="1.1">
<g id="surface1">
<path style=" stroke:none;fill-rule:nonzero;fill:rgb(0%,0%,0%);fill-opacity:1;" d="M 12 15 L 15 15 L 15 12 L 12 12 Z M 12 15 "/>
<path style=" stroke:none;fill-rule:nonzero;fill:rgb(0%,0%,0%);fill-opacity:1;" d="M 15 15 L 18 15 L 18 12 L 15 12 Z M 15 15 "/>
<path style=" stroke:none;fill-rule:nonzero;fill:rgb(0%,0%,0%);fill-opacity:1;" d="M 18 15 L 21 15 L 21 12 L 18 12 Z M 18 15 "/>
<path style=" stroke:none;fill-rule:nonzero;fill:rgb(0%,0%,0%);fill-opacity:1;" d="M 21 15 L 24 15 L 24 12 L 21 12 Z M 21 15 "/>
<path style=" stroke:none;fill-rule:nonzero;fill:rgb(0%,0%,0%);fill-opacity:1;" d="M 24 15 L 27 15 L 27 12 L 24 12 Z M 24 15 "/>
<path style=" stroke:none;fill-rule:nonzero;fill:rgb(0%,0%,0%);fill-opacity:1;" d="M 27 15 L 30 15 L 30 12 L 27 12 Z M 27 15 "/>
<path style=" stroke:none;fill-rule:nonzero;fill:rgb(0%,0%,0%);fill-opacity:1;" d="M 30 15 L 33 15 L 33 12 L 30 12 Z M 30 15 "/>
<path style=" stroke:none;fill-rule:nonzero;fill:rgb(0%,0%,0%);fill-opacity:1;" d="M 36 15 L 39 15 L 39 12 L 36 12 Z M 36 15 "/>
<path style=" stroke:none;fill-rule:nonzero;fill:rgb(0%,0%,0%);fill-opacity:1;" d="M 39 15 L 42 15 L 42 12 L 39 12 Z M 39 15 "/>
<path style=" stroke:none;fill-rule:nonzero;fill:rgb(0%,0%,0%);fill-opacity:1;" d="M 42 15 L 45 15 L 45 12 L 42 12 Z M 42 15 "/>
<path style=" stroke:none;fill-rule:nonzero;fill:rgb(0%,0%,0%);fill-opacity:1;" d="M 45 15 L 48 15 L 48 12 L 45 12 Z M 45 15 "/>
<path style=" stroke:none;fill-rule:nonzero;fill:rgb(0%,0%,0%);fill-opacity:1;" d="M 54 15 L 57 15 L 57 12 L 54 12 Z M 54 15 "/>
<path style=" stroke:none;fill-rule:nonzero;fill:rgb(0%,0%,0%);fill-opacity:1;" d="M 60 15 L 63 15 L 63 12 L 60 12 Z M 60 15 "/>
<path style=" stroke:none;fill-rule:nonzero;fill:rgb(0%,0%,0%);fill-opacity:1;" d="M 66 15 L 69 15 L 69 12 L 66 12 Z M 66 15 "/>
<path style=" stroke:none;fill-rule:nonzero;fill:rgb(0%,0%,0%);fill-opacity:1;" d="M 69 15 L 72 15 L 72 12 L 69 12 Z M 69 15 "/>
<path style=" stroke:none;fill-rule:nonzero;fill:rgb(0%,0%,0%);fill-opacity:1;" d="M 72 15 L 75 15 L 75 12 L 72 12 Z M 72 15 "/>
<path style=" stroke:none;fill-rule:nonzero;fill:rgb(0%,0%,0%);fill-opacity:1;" d="M 75 15 L 78 15 L 78 12 L 75 12 Z M 75 15 "/>
<path style=" stroke:none;fill-rule:nonzero;fill:rgb(0%,0%,0%);fill-opacity:1;" d="M 78 15 L 81 15 L 81 12 L 78 12 Z M 78 15 "/>
<path style=" stroke:none;fill-rule:nonzero;fill:rgb(0%,0%,0%);fill-opacity:1;" d="M 81 15 L 84 15 L 84 12 L 81 12 Z M 81 15 "/>
<path style=" stroke:none;fill-rule:nonzero;fill:rgb(0%,0%,0%);fill-opacity:1;" d="M 84 15 L 87 15 L 87 12 L 84 12 Z M 84 15 "/>
<path style=" stroke:none;fill-rule:nonzero;fill:rgb(0%,0%,0%);fill-opacity:1;" d="M 12 18 L 15 18 L 15 15 L 12 15 Z M 12 18 "/>
<path style=" stroke:none;fill-rule:nonzero;fill:rgb(0%,0%,0%);fill-opacity:1;" d="M 30 18 L 33 18 L 33 15 L 30 15 Z M 30 18 "/>
<path style=" stroke:none;fill-rule:nonzero;fill:rgb(0%,0%,0%);fill-opacity:1;" d="M 45 18 L 48 18 L 48 15 L 45 15 Z M 45 18 "/>
<path style=" stroke:none;fill-rule:nonzero;fill:rgb(0%,0%,0%);fill-opacity:1;" d="M 48 18 L 51 18 L 51 15 L 48 15 Z M 48 18 "/>
<path style=" stroke:none;fill-rule:nonzero;fill:rgb(0%,0%,0%);fill-opacity:1;" d="M 60 18 L 63 18 L 63 15 L 60 15 Z M 60 18 "/>
<path style=" stroke:none;fill-rule:nonzero;fill:rgb(0%,0%,0%);fill-opacity:1;" d="M 66 18 L 69 18 L 69 15 L 66 15 Z M 66 18 "/>
<path style=" stroke:none;fill-rule:nonzero;fill:rgb(0%,0%,0%);fill-opacity:1;" d="M 84 18 L 87 18 L 87 15 L 84 15 Z M 84 18 "/>
<path style=" stroke:none;fill-rule:nonzero;fill:rgb(0%,0%,0%);fill-opacity:1;" d="M 12 21 L 15 21 L 15 18 L 12 18 Z M 12 21 "/>
<path style=" stroke:none;fill-rule:nonzero;fill:rgb(0%,0%,0%);fill-opacity:1;" d="M 18 21 L 21 21 L 21 18 L 18 18 Z M 18 21 "/>
<path style=" stroke:none;fill-rule:nonzero;fill:rgb(0%,0%,0%);fill-opacity:1;" d="M 21 21 L 24 21 L 24 18 L 21 18 Z M 21 21 "/>
<path style=" stroke:none;fill-rule:nonzero;fill:rgb(0%,0%,0%);fill-opacity:1;" d="M 24 21 L 27 21 L 27 18 L 24 18 Z M 24 21 "/>
<path style=" stroke:none;fill-rule:nonzero;fill:rgb(0%,0%,0%);fill-opacity:1;" d="M 30 21 L 33 21 L 33 18 L 30 18 Z M 30 21 "/>
<path style=" stroke:none;fill-rule:nonzero;fill:rgb(0%,0%,0%);fill-opacity:1;" d="M 39 21 L 42 21 L 42 18 L 39 18 Z M 39 21 "/>
<path style=" stroke:none;fill-rule:nonzero;fill:rgb(0%,0%,0%);fill-opacity:1;" d="M 45 21 L 48 21 L 48 18 L 45 18 Z M 45 21 "/>
<path style=" stroke:none;fill-rule:nonzero;fill:rgb(0%,0%,0%);fill-opacity:1;" d="M 51 21 L 54 21 L 54 18 L 51 18 Z M 51 21 "/>
<path style=" stroke:none;fill-rule:nonzero;fill:rgb(0%,0%,0%);fill-opacity:1;" d="M 54 21 L 57 21 L 57 18 L 54 18 Z M 54 21 "/>
<path style=" stroke:none;fill-rule:nonzero;fill:rgb(0%,0%,0%);fill-opacity:1;" d="M 66 21 L 69 21 L 69 18 L 66 18 Z M 66 21 "/>
<path style=" stroke:none;fill-rule:nonzero;fill:rgb(0%,0%,0%);fill-opacity:1;" d="M 72 21 L 75 21 L 75 18 L 72 18 Z M 72 21 "/>
<path style=" stroke:none;fill-rule:nonzero;fill:rgb(0%,0%,0%);fill-opacity:1;" d="M 75 21 L 78 21 L 78 18 L 75 18 Z M 75 21 "/>
<path style=" stroke:none;fill-rule:nonzero;fill:rgb(0%,0%,0%);fill-opacity:1;" d="M 78 21 L 81 21 L 81 18 L 78 18 Z M 78 21 "/>
<path style=" stroke:none;fill-rule:nonzero;fill:rgb(0%,0%,0%);fill-opacity:1;" d="M 84 21 L 87 21 L 87 18 L 84 18 Z M 84 21 "/>
<path style=" stroke:none;fill-rule:nonzero;fill:rgb(0%,0%,0%);fill-opacity:1;" d="M 12 24 L 15 24 L 15 21 L 12 21 Z M 12 24 "/>
<path style=" stroke:none;fill-rule:nonzero;fill:rgb(0%,0%,0%);fill-opacity:1;" d="M 18 24 L 21 24 L 21 21 L 18 21 Z M 18 24 "/>
<path style=" stroke:none;fill-rule:nonzero;fill:rgb(0%,0%,0%);fill-opacity:1;" d="M 21 24 L 24 24 L 24 21 L 21 21 Z M 21 24 "/>
<path style=" stroke:none;fill-rule:nonzero;fill:rgb(0%,0%,0%);fill-opacity:1;" d="M 24 24 L 27 24 L 27 21 L 24 21 Z M 24 24 "/>
<path style=" stroke:none;fill-rule:nonzero;fill:rgb(0%,0%,0%);fill-opacity:1;" d="M 30 24 L 33 24 L 33 21 L 30 21 Z M 30 24 "/>
<path style=" stroke:none;fill-rule:nonzero;fill:rgb(0%,0%,0%);fill-opacity:1;" d="M 42 24 L 45 24 L 45 21 L 42 21 Z M 42 24 "/>
<path style=" stroke:none;fill-rule:nonzero;fill:rgb(0%,0%,0%);fill-opacity:1;" d="M 45 24 L 48 24 L 48 21 L 45 21 Z M 45 24 "/>
<path style=" stroke:none;fill-rule:nonzero;fill:rgb(0%,0%,0%);fill-opacity:1;" d="M 48 24 L 51 24 L 51 21 L 48 21 Z M 48 24 "/>
<path style=" stroke:none;fill-rule:nonzero;fill:rgb(0%,0%,0%);fill-opacity:1;" d="M 51 24 L 54 24 L 54 21 L 51 21 Z M 51 24 "/>
<path style=" stroke:none;fill-rule:nonzero;fill:rgb(0%,0%,0%);fill-opacity:1;" d="M 60 24 L 63 24 L 63 21 L 60 21 Z M 60 24 "/>
<path style=" stroke:none;fill-rule:nonzero;fill:rgb(0%,0%,0%);fill-opacity:1;" d="M 66 24 L 69 24 L 69 21 L 66 21 Z M 66 24 "/>
<path style=" stroke:none;fill-rule:nonzero;fill:rgb(0%,0%,0%);fill-opacity:1;" d="M 72 24 L 75 24 L 75 21 L 72 21 Z M 72 24 "/>
<path style=" stroke:none;fill-rule:nonzero;fill:rgb(0%,0%,0%);fill-opacity:1;" d="M 75 24 L 78 24 L 78 21 L 75 21 Z M 75 24 "/>
<path style=" stroke:none;fill-rule:nonzero;fill:rgb(0%,0%,0%);fill-opacity:1;" d="M 78 24 L 81 24 L 81 21 L 78 21 Z M 78 24 "/>
<path style=" stroke:none;fill-rule:nonzero;fill:rgb(0%,0%,0%);fill-opacity:1;" d="M 84 24 L 87 24 L 87 21 L 84 21 Z M 84 24 "/>
<path style=" stroke:none;fill-rule:nonzero;fill:rgb(0%,0%,0%);fill-opacity:1;" d="M 12 27 L 15 27 L 15 24 L 12 24 Z M 12 27 "/>
<path style=" stroke:none;fill-rule:nonzero;fill:rgb(0%,0%,0%);fill-opacity:1;" d="M 18 27 L 21 27 L 21 24 L 18 24 Z M 18 27 "/>
<path style=" stroke:none;fill-rule:nonzero;fill:rgb(0%,0%,0%);fill-opacity:1;" d="M 21 27 L 24 27 L 24 24 L 21 24 Z M 21 27 "/>
<path style=" stroke:none;fill-rule:nonzero;fill:rgb(0%,0%,0%);fill-opacity:1;" d="M 24 27 L 27 27 L 27 24 L 24 24 Z M 24 27 "/>
<path style=" stroke:none;fill-rule:nonzero;fill:rgb(0%,0%,0%);fill-opacity:1;" d="M 30 27 L 33 27 L 33 24 L 30 24 Z M 30 27 "/>
<path style=" stroke:none;fill-rule:nonzero;fill:rgb(0%,0%,0%);fill-opacity:1;" d="M 42 27 L 45 27 L 45 24 L 42 24 Z M 42 27 "/>
<path style=" stroke:none;fill-rule:nonzero;fill:rgb(0%,0%,0%);fill-opacity:1;" d="M 45 27 L 48 27 L 48 24 L 45 24 Z M 45 27 "/>
<path style=" stroke:none;fill-rule:nonzero;fill:rgb(0%,0%,0%);fill-opacity:1;" d="M 48 27 L 51 27 L 51 24 L 48 24 Z M 48 27 "/>
<path style=" stroke:none;fill-rule:nonzero;fill:rgb(0%,0%,0%);fill-opacity:1;" d="M 54 27 L 57 27 L 57 24 L 54 24 Z M 54 27 "/>
<path style=" stroke:none;fill-rule:nonzero;fill:rgb(0%,0%,0%);fill-opacity:1;" d="M 60 27 L 63 27 L 63 24 L 60 24 Z M 60 27 "/>
<path style=" stroke:none;fill-rule:nonzero;fill:rgb(0%,0%,0%);fill-opacity:1;" d="M 66 27 L 69 27 L 69 24 L 66 24 Z M 66 27 "/>
<path style=" stroke:none;fill-rule:nonzero;fill:rgb(0%,0%,0%);fill-opacity:1;" d="M 72 27 L 75 27 L 75 24 L 72 24 Z M 72 27 "/>
<path style=" stroke:none;fill-rule:nonzero;fill:rgb(0%,0%,0%);fill-opacity:1;" d="M 75 27 L 78 27 L 78 24 L 75 24 Z M 75 27 "/>
<path style=" stroke:none;fill-rule:nonzero;fill:rgb(0%,0%,0%);fill-opacity:1;" d="M 78 27 L 81 27 L 81 24 L 78 24 Z M 78 27 "/>
<path style=" stroke:none;fill-rule:nonzero;fill:rgb(0%,0%,0%);fill-opacity:1;" d="M 84 27 L 87 27 L 87 24 L 84 24 Z M 84 27 "/>
<path style=" stroke:none;fill-rule:nonzero;fill:rgb(0%,0%,0%);fill-opacity:1;" d="M 12 30 L 15 30 L 15 27 L 12 27 Z M 12 30 "/>
<path style=" stroke:none;fill-rule:nonzero;fill:rgb(0%,0%,0%);fill-opacity:1;" d="M 30 30 L 33 30 L 33 27 L 30 27 Z M 30 30 "/>
<path style=" stroke:none;fill-rule:nonzero;fill:rgb(0%,0%,0%);fill-opacity:1;" d="M 39 30 L 42 30 L 42 27 L 39 27 Z M 39 30 "/>
<path style=" stroke:none;fill-rule:nonzero;fill:rgb(0%,0%,0%);fill-opacity:1;" d="M 45 30 L 48 30 L 48 27 L 45 27 Z M 45 30 "/>
<path style=" stroke:none;fill-rule:nonzero;fill:rgb(0%,0%,0%);fill-opacity:1;" d="M 51 30 L 54 30 L 54 27 L 51 27 Z M 51 30 "/>
<path style=" stroke:none;fill-rule:nonzero;fill:rgb(0%,0%,0%);fill-opacity:1;" d="M 54 30 L 57 30 L 57 27 L 54 27 Z M 54 30 "/>
<path style=" stroke:none;fill-rule:nonzero;fill:rgb(0%,0%,0%);fill-opacity:1;" d="M 60 30 L 63 30 L 63 27 L 60 27 Z M 60 30 "/>
<path style=" stroke:none;fill-rule:nonzero;fill:rgb(0%,0%,0%);fill-opacity:1;" d="M 66 30 L 69 30 L 69 27 L 66 27 Z M 66 30 "/>
<path style=" stroke:none;fill-rule:nonzero;fill:rgb(0%,0%,0%);fill-opacity:1;" d="M 84 30 L 87 30 L 87 27 L 84 27 Z M 84 30 "/>
<path style=" stroke:none;fill-rule:nonzero;fill:rgb(0%,0%,0%);fill-opacity:1;" d="M 12 33 L 15 33 L 15 30 L 12 30 Z M 12 33 "/>
<path style=" stroke:none;fill-rule:nonzero;fill:rgb(0%,0%,0%);fill-opacity:1;" d="M 15 33 L 18 33 L 18 30 L 15 30 Z M 15 33 "/>
<path style=" stroke:none;fill-rule:nonzero;fill:rgb(0%,0%,0%);fill-opacity:1;" d="M 18 33 L 21 33 L 21 30 L 18 30 Z M 18 33 "/>
<path style=" stroke:none;fill-rule:nonzero;fill:rgb(0%,0%,0%);fill-opacity:1;" d="M 21 33 L 24 33 L 24 30 L 21 30 Z M 21 33 "/>
<path style=" stroke:none;fill-rule:nonzero;fill:rgb(0%,0%,0%);fill-opacity:1;" d="M 24 33 L 27 33 L 27 30 L 24 30 Z M 24 33 "/>
<path style=" stroke:none;fill-rule:nonzero;fill:rgb(0%,0%,0%);fill-opacity:1;" d="M 27 33 L 30 33 L 30 30 L 27 30 Z M 27 33 "/>
<path style=" stroke:none;fill-rule:nonzero;fill:rgb(0%,0%,0%);fill-opacity:1;" d="M 30 33 L 33 33 L 33 30 L 30 30 Z M 30 33 "/>
<path style=" stroke:none;fill-rule:nonzero;fill:rgb(0%,0%,0%);fill-opacity:1;" d="M 36 33 L 39 33 L 39 30 L 36 30 Z M 36 33 "/>
<path style=" stroke:none;fill-rule:nonzero;fill:rgb(0%,0%,0%);fill-opacity:1;" d="M 42 33 L 45 33 L 45 30 L 42 30 Z M 42 33 "/>
<path style=" stroke:none;fill-rule:nonzero;fill:rgb(0%,0%,0%);fill-opacity:1;" d="M 48 33 L 51 33 L 51 30 L 48 30 Z M 48 33 "/>
<path style=" stroke:none;fill-rule:nonzero;fill:rgb(0%,0%,0%);fill-opacity:1;" d="M 54 33 L 57 33 L 57 30 L 54 30 Z M 54 33 "/>
<path style=" stroke:none;fill-rule:nonzero;fill:rgb(0%,0%,0%);fill-opacity:1;" d="M 60 33 L 63 33 L 63 30 L 60 30 Z M 60 33 "/>
<path style=" stroke:none;fill-rule:nonzero;fill:rgb(0%,0%,0%);fill-opacity:1;" d="M 66 33 L 69 33 L 69 30 L 66 30 Z M 66 33 "/>
<path style=" stroke:none;fill-rule:nonzero;fill:rgb(0%,0%,0%);fill-opacity:1;" d="M 69 33 L 72 33 L 72 30 L 69 30 Z M 69 33 "/>
<path style=" stroke:none;fill-rule:nonzero;fill:rgb(0%,0%,0%);fill-opacity:1;" d="M 72 33 L 75 33 L 75 30 L 72 30 Z M 72 33 "/>
<path style=" stroke:none;fill-rule:nonzero;fill:rgb(0%,0%,0%);fill-opacity:1;" d="M 75 33 L 78 33 L 78 30 L 75 30 Z M 75 33 "/>
<path style=" stroke:none;fill-rule:nonzero;fill:rgb(0%,0%,0%);fill-opacity:1;" d="M 78 33 L 81 33 L 81 30 L 78 30 Z M 78 33 "/>
<path style=" stroke:none;fill-rule:nonzero;fill:rgb(0%,0%,0%);fill-opacity:1;" d="M 81 33 L 84 33 L 84 30 L 81 30 Z M 81 33 "/>
<path style=" stroke:none;fill-rule:nonzero;fill:rgb(0%,0%,0%);fill-opacity:1;" d="M 84 33 L 87 33 L 87 30 L 84 30 Z M 84 33 "/>
<path style=" stroke:none;fill-rule:nonzero;fill:rgb(0%,0%,0%);fill-opacity:1;" d="M 36 36 L 39 36 L 39 33 L 36 33 Z M 36 36 "/>
<path style=" stroke:none;fill-rule:nonzero;fill:rgb(0%,0%,0%);fill-opacity:1;" d="M 39 36 L 42 36 L 42 33 L 39 33 Z M 39 36 "/>
<path style=" stroke:none;fill-rule:nonzero;fill:rgb(0%,0%,0%);fill-opacity:1;" d="M 48 36 L 51 36 L 51 33 L 48 33 Z M 48 36 "/>
<path style=" stroke:none;fill-rule:nonzero;fill:rgb(0%,0%,0%);fill-opacity:1;" d="M 51 36 L 54 36 L 54 33 L 51 33 Z M 51 36 "/>
<path style=" stroke:none;fill-rule:nonzero;fill:rgb(0%,0%,0%);fill-opacity:1;" d="M 54 36 L 57 36 L 57 33 L 54 33 Z M 54 36 "/>
<path style=" stroke:none;fill-rule:nonzero;fill:rgb(0%,0%,0%);fill-opacity:1;" d="M 57 36 L 60 36 L 60 33 L 57 33 Z M 57 36 "/>
<path style=" stroke:none;fill-rule:nonzero;fill:rgb(0%,0%,0%);fill-opacity:1;" d="M 12 39 L 15 39 L 15 36 L 12 36 Z M 12 39 "/>
<path style=" stroke:none;fill-rule:nonzero;fill:rgb(0%,0%,0%);fill-opacity:1;" d="M 15 39 L 18 39 L 18 36 L 15 36 Z M 15 39 "/>
<path style=" stroke:none;fill-rule:nonzero;fill:rgb(0%,0%,0%);fill-opacity:1;" d="M 21 39 L 24 39 L 24 36 L 21 36 Z M 21 39 "/>
<path style=" stroke:none;fill-rule:nonzero;fill:rgb(0%,0%,0%);fill-opacity:1;" d="M 24 39 L 27 39 L 27 36 L 24 36 Z M 24 39 "/>
<path style=" stroke:none;fill-rule:nonzero;fill:rgb(0%,0%,0%);fill-opacity:1;" d="M 30 39 L 33 39 L 33 36 L 30 36 Z M 30 39 "/>
<path style=" stroke:none;fill-rule:nonzero;fill:rgb(0%,0%,0%);fill-opacity:1;" d="M 39 39 L 42 39 L 42 36 L 39 36 Z M 39 39 "/>
<path style=" stroke:none;fill-rule:nonzero;fill:rgb(0%,0%,0%);fill-opacity:1;" d="M 45 39 L 48 39 L 48 36 L 45 36 Z M 45 39 "/>
<path style=" stroke:none;fill-rule:nonzero;fill:rgb(0%,0%,0%);fill-opacity:1;" d="M 54 39 L 57 39 L 57 36 L 54 36 Z M 54 39 "/>
<path style=" stroke:none;fill-rule:nonzero;fill:rgb(0%,0%,0%);fill-opacity:1;" d="M 57 39 L 60 39 L 60 36 L 57 36 Z M 57 39 "/>
<path style=" stroke:none;fill-rule:nonzero;fill:rgb(0%,0%,0%);fill-opacity:1;" d="M 66 39 L 69 39 L 69 36 L 66 36 Z M 66 39 "/>
<path style=" stroke:none;fill-rule:nonzero;fill:rgb(0%,0%,0%);fill-opacity:1;" d="M 84 39 L 87 39 L 87 36 L 84 36 Z M 84 39 "/>
<path style=" stroke:none;fill-rule:nonzero;fill:rgb(0%,0%,0%);fill-opacity:1;" d="M 15 42 L 18 42 L 18 39 L 15 39 Z M 15 42 "/>
<path style=" stroke:none;fill-rule:nonzero;fill:rgb(0%,0%,0%);fill-opacity:1;" d="M 18 42 L 21 42 L 21 39 L 18 39 Z M 18 42 "/>
<path style=" stroke:none;fill-rule:nonzero;fill:rgb(0%,0%,0%);fill-opacity:1;" d="M 21 42 L 24 42 L 24 39 L 21 39 Z M 21 42 "/>
<path style=" stroke:none;fill-rule:nonzero;fill:rgb(0%,0%,0%);fill-opacity:1;" d="M 24 42 L 27 42 L 27 39 L 24 39 Z M 24 42 "/>
<path style=" stroke:none;fill-rule:nonzero;fill:rgb(0%,0%,0%);fill-opacity:1;" d="M 27 42 L 30 42 L 30 39 L 27 39 Z M 27 42 "/>
<path style=" stroke:none;fill-rule:nonzero;fill:rgb(0%,0%,0%);fill-opacity:1;" d="M 36 42 L 39 42 L 39 39 L 36 39 Z M 36 42 "/>
<path style=" stroke:none;fill-rule:nonzero;fill:rgb(0%,0%,0%);fill-opacity:1;" d="M 42 42 L 45 42 L 45 39 L 42 39 Z M 42 42 "/>
<path style=" stroke:none;fill-rule:nonzero;fill:rgb(0%,0%,0%);fill-opacity:1;" d="M 45 42 L 48 42 L 48 39 L 45 39 Z M 45 42 "/>
<path style=" stroke:none;fill-rule:nonzero;fill:rgb(0%,0%,0%);fill-opacity:1;" d="M 54 42 L 57 42 L 57 39 L 54 39 Z M 54 42 "/>
<path style=" stroke:none;fill-rule:nonzero;fill:rgb(0%,0%,0%);fill-opacity:1;" d="M 57 42 L 60 42 L 60 39 L 57 39 Z M 57 42 "/>
<path style=" stroke:none;fill-rule:nonzero;fill:rgb(0%,0%,0%);fill-opacity:1;" d="M 63 42 L 66 42 L 66 39 L 63 39 Z M 63 42 "/>
<path style=" stroke:none;fill-rule:nonzero;fill:rgb(0%,0%,0%);fill-opacity:1;" d="M 69 42 L 72 42 L 72 39 L 69 39 Z M 69 42 "/>
<path style=" stroke:none;fill-rule:nonzero;fill:rgb(0%,0%,0%);fill-opacity:1;" d="M 72 42 L 75 42 L 75 39 L 72 39 Z M 72 42 "/>
<path style=" stroke:none;fill-rule:nonzero;fill:rgb(0%,0%,0%);fill-opacity:1;" d="M 75 42 L 78 42 L 78 39 L 75 39 Z M 75 42 "/>
<path style=" stroke:none;fill-rule:nonzero;fill:rgb(0%,0%,0%);fill-opacity:1;" d="M 78 42 L 81 42 L 81 39 L 78 39 Z M 78 42 "/>
<path style=" stroke:none;fill-rule:nonzero;fill:rgb(0%,0%,0%);fill-opacity:1;" d="M 81 42 L 84 42 L 84 39 L 81 39 Z M 81 42 "/>
<path style=" stroke:none;fill-rule:nonzero;fill:rgb(0%,0%,0%);fill-opacity:1;" d="M 12 45 L 15 45 L 15 42 L 12 42 Z M 12 45 "/>
<path style=" stroke:none;fill-rule:nonzero;fill:rgb(0%,0%,0%);fill-opacity:1;" d="M 18 45 L 21 45 L 21 42 L 18 42 Z M 18 45 "/>
<path style=" stroke:none;fill-rule:nonzero;fill:rgb(0%,0%,0%);fill-opacity:1;" d="M 24 45 L 27 45 L 27 42 L 24 42 Z M 24 45 "/>
<path style=" stroke:none;fill-rule:nonzero;fill:rgb(0%,0%,0%);fill-opacity:1;" d="M 27 45 L 30 45 L 30 42 L 27 42 Z M 27 45 "/>
<path style=" stroke:none;fill-rule:nonzero;fill:rgb(0%,0%,0%);fill-opacity:1;" d="M 30 45 L 33 45 L 33 42 L 30 42 Z M 30 45 "/>
<path style=" stroke:none;fill-rule:nonzero;fill:rgb(0%,0%,0%);fill-opacity:1;" d="M 33 45 L 36 45 L 36 42 L 33 42 Z M 33 45 "/>
<path style=" stroke:none;fill-rule:nonzero;fill:rgb(0%,0%,0%);fill-opacity:1;" d="M 39 45 L 42 45 L 42 42 L 39 42 Z M 39 45 "/>
<path style=" stroke:none;fill-rule:nonzero;fill:rgb(0%,0%,0%);fill-opacity:1;" d="M 45 45 L 48 45 L 48 42 L 45 42 Z M 45 45 "/>
<path style=" stroke:none;fill-rule:nonzero;fill:rgb(0%,0%,0%);fill-opacity:1;" d="M 48 45 L 51 45 L 51 42 L 48 42 Z M 48 45 "/>
<path style=" stroke:none;fill-rule:nonzero;fill:rgb(0%,0%,0%);fill-opacity:1;" d="M 54 45 L 57 45 L 57 42 L 54 42 Z M 54 45 "/>
<path style=" stroke:none;fill-rule:nonzero;fill:rgb(0%,0%,0%);fill-opacity:1;" d="M 57 45 L 60 45 L 60 42 L 57 42 Z M 57 45 "/>
<path style=" stroke:none;fill-rule:nonzero;fill:rgb(0%,0%,0%);fill-opacity:1;" d="M 60 45 L 63 45 L 63 42 L 60 42 Z M 60 45 "/>
<path style=" stroke:none;fill-rule:nonzero;fill:rgb(0%,0%,0%);fill-opacity:1;" d="M 63 45 L 66 45 L 66 42 L 63 42 Z M 63 45 "/>
<path style=" stroke:none;fill-rule:nonzero;fill:rgb(0%,0%,0%);fill-opacity:1;" d="M 69 45 L 72 45 L 72 42 L 69 42 Z M 69 45 "/>
<path style=" stroke:none;fill-rule:nonzero;fill:rgb(0%,0%,0%);fill-opacity:1;" d="M 75 45 L 78 45 L 78 42 L 75 42 Z M 75 45 "/>
<path style=" stroke:none;fill-rule:nonzero;fill:rgb(0%,0%,0%);fill-opacity:1;" d="M 84 45 L 87 45 L 87 42 L 84 42 Z M 84 45 "/>
<path style=" stroke:none;fill-rule:nonzero;fill:rgb(0%,0%,0%);fill-opacity:1;" d="M 12 48 L 15 48 L 15 45 L 12 45 Z M 12 48 "/>
<path style=" stroke:none;fill-rule:nonzero;fill:rgb(0%,0%,0%);fill-opacity:1;" d="M 18 48 L 21 48 L 21 45 L 18 45 Z M 18 48 "/>
<path style=" stroke:none;fill-rule:nonzero;fill:rgb(0%,0%,0%);fill-opacity:1;" d="M 36 48 L 39 48 L 39 45 L 36 45 Z M 36 48 "/>
<path style=" stroke:none;fill-rule:nonzero;fill:rgb(0%,0%,0%);fill-opacity:1;" d="M 45 48 L 48 48 L 48 45 L 45 45 Z M 45 48 "/>
<path style=" stroke:none;fill-rule:nonzero;fill:rgb(0%,0%,0%);fill-opacity:1;" d="M 54 48 L 57 48 L 57 45 L 54 45 Z M 54 48 "/>
<path style=" stroke:none;fill-rule:nonzero;fill:rgb(0%,0%,0%);fill-opacity:1;" d="M 57 48 L 60 48 L 60 45 L 57 45 Z M 57 48 "/>
<path style=" stroke:none;fill-rule:nonzero;fill:rgb(0%,0%,0%);fill-opacity:1;" d="M 63 48 L 66 48 L 66 45 L 63 45 Z M 63 48 "/>
<path style=" stroke:none;fill-rule:nonzero;fill:rgb(0%,0%,0%);fill-opacity:1;" d="M 75 48 L 78 48 L 78 45 L 75 45 Z M 75 48 "/>
<path style=" stroke:none;fill-rule:nonzero;fill:rgb(0%,0%,0%);fill-opacity:1;" d="M 78 48 L 81 48 L 81 45 L 78 45 Z M 78 48 "/>
<path style=" stroke:none;fill-rule:nonzero;fill:rgb(0%,0%,0%);fill-opacity:1;" d="M 81 48 L 84 48 L 84 45 L 81 45 Z M 81 48 "/>
<path style=" stroke:none;fill-rule:nonzero;fill:rgb(0%,0%,0%);fill-opacity:1;" d="M 84 48 L 87 48 L 87 45 L 84 45 Z M 84 48 "/>
<path style=" stroke:none;fill-rule:nonzero;fill:rgb(0%,0%,0%);fill-opacity:1;" d="M 15 51 L 18 51 L 18 48 L 15 48 Z M 15 51 "/>
<path style=" stroke:none;fill-rule:nonzero;fill:rgb(0%,0%,0%);fill-opacity:1;" d="M 18 51 L 21 51 L 21 48 L 18 48 Z M 18 51 "/>
<path style=" stroke:none;fill-rule:nonzero;fill:rgb(0%,0%,0%);fill-opacity:1;" d="M 21 51 L 24 51 L 24 48 L 21 48 Z M 21 51 "/>
<path style=" stroke:none;fill-rule:nonzero;fill:rgb(0%,0%,0%);fill-opacity:1;" d="M 27 51 L 30 51 L 30 48 L 27 48 Z M 27 51 "/>
<path style=" stroke:none;fill-rule:nonzero;fill:rgb(0%,0%,0%);fill-opacity:1;" d="M 30 51 L 33 51 L 33 48 L 30 48 Z M 30 51 "/>
<path style=" stroke:none;fill-rule:nonzero;fill:rgb(0%,0%,0%);fill-opacity:1;" d="M 33 51 L 36 51 L 36 48 L 33 48 Z M 33 51 "/>
<path style=" stroke:none;fill-rule:nonzero;fill:rgb(0%,0%,0%);fill-opacity:1;" d="M 39 51 L 42 51 L 42 48 L 39 48 Z M 39 51 "/>
<path style=" stroke:none;fill-rule:nonzero;fill:rgb(0%,0%,0%);fill-opacity:1;" d="M 42 51 L 45 51 L 45 48 L 42 48 Z M 42 51 "/>
<path style=" stroke:none;fill-rule:nonzero;fill:rgb(0%,0%,0%);fill-opacity:1;" d="M 45 51 L 48 51 L 48 48 L 45 48 Z M 45 51 "/>
<path style=" stroke:none;fill-rule:nonzero;fill:rgb(0%,0%,0%);fill-opacity:1;" d="M 60 51 L 63 51 L 63 48 L 60 48 Z M 60 51 "/>
<path style=" stroke:none;fill-rule:nonzero;fill:rgb(0%,0%,0%);fill-opacity:1;" d="M 66 51 L 69 51 L 69 48 L 66 48 Z M 66 51 "/>
<path style=" stroke:none;fill-rule:nonzero;fill:rgb(0%,0%,0%);fill-opacity:1;" d="M 69 51 L 72 51 L 72 48 L 69 48 Z M 69 51 "/>
<path style=" stroke:none;fill-rule:nonzero;fill:rgb(0%,0%,0%);fill-opacity:1;" d="M 84 51 L 87 51 L 87 48 L 84 48 Z M 84 51 "/>
<path style=" stroke:none;fill-rule:nonzero;fill:rgb(0%,0%,0%);fill-opacity:1;" d="M 12 54 L 15 54 L 15 51 L 12 51 Z M 12 54 "/>
<path style=" stroke:none;fill-rule:nonzero;fill:rgb(0%,0%,0%);fill-opacity:1;" d="M 18 54 L 21 54 L 21 51 L 18 51 Z M 18 54 "/>
<path style=" stroke:none;fill-rule:nonzero;fill:rgb(0%,0%,0%);fill-opacity:1;" d="M 24 54 L 27 54 L 27 51 L 24 51 Z M 24 54 "/>
<path style=" stroke:none;fill-rule:nonzero;fill:rgb(0%,0%,0%);fill-opacity:1;" d="M 42 54 L 45 54 L 45 51 L 42 51 Z M 42 54 "/>
<path style=" stroke:none;fill-rule:nonzero;fill:rgb(0%,0%,0%);fill-opacity:1;" d="M 45 54 L 48 54 L 48 51 L 45 51 Z M 45 54 "/>
<path style=" stroke:none;fill-rule:nonzero;fill:rgb(0%,0%,0%);fill-opacity:1;" d="M 51 54 L 54 54 L 54 51 L 51 51 Z M 51 54 "/>
<path style=" stroke:none;fill-rule:nonzero;fill:rgb(0%,0%,0%);fill-opacity:1;" d="M 54 54 L 57 54 L 57 51 L 54 51 Z M 54 54 "/>
<path style=" stroke:none;fill-rule:nonzero;fill:rgb(0%,0%,0%);fill-opacity:1;" d="M 57 54 L 60 54 L 60 51 L 57 51 Z M 57 54 "/>
<path style=" stroke:none;fill-rule:nonzero;fill:rgb(0%,0%,0%);fill-opacity:1;" d="M 60 54 L 63 54 L 63 51 L 60 51 Z M 60 54 "/>
<path style=" stroke:none;fill-rule:nonzero;fill:rgb(0%,0%,0%);fill-opacity:1;" d="M 72 54 L 75 54 L 75 51 L 72 51 Z M 72 54 "/>
<path style=" stroke:none;fill-rule:nonzero;fill:rgb(0%,0%,0%);fill-opacity:1;" d="M 81 54 L 84 54 L 84 51 L 81 51 Z M 81 54 "/>
<path style=" stroke:none;fill-rule:nonzero;fill:rgb(0%,0%,0%);fill-opacity:1;" d="M 12 57 L 15 57 L 15 54 L 12 54 Z M 12 57 "/>
<path style=" stroke:none;fill-rule:nonzero;fill:rgb(0%,0%,0%);fill-opacity:1;" d="M 15 57 L 18 57 L 18 54 L 15 54 Z M 15 57 "/>
<path style=" stroke:none;fill-rule:nonzero;fill:rgb(0%,0%,0%);fill-opacity:1;" d="M 18 57 L 21 57 L 21 54 L 18 54 Z M 18 57 "/>
<path style=" stroke:none;fill-rule:nonzero;fill:rgb(0%,0%,0%);fill-opacity:1;" d="M 21 57 L 24 57 L 24 54 L 21 54 Z M 21 57 "/>
<path style=" stroke:none;fill-rule:nonzero;fill:rgb(0%,0%,0%);fill-opacity:1;" d="M 30 57 L 33 57 L 33 54 L 30 54 Z M 30 57 "/>
<path style=" stroke:none;fill-rule:nonzero;fill:rgb(0%,0%,0%);fill-opacity:1;" d="M 42 57 L 45 57 L 45 54 L 42 54 Z M 42 57 "/>
<path style=" stroke:none;fill-rule:nonzero;fill:rgb(0%,0%,0%);fill-opacity:1;" d="M 57 57 L 60 57 L 60 54 L 57 54 Z M 57 57 "/>
<path style=" stroke:none;fill-rule:nonzero;fill:rgb(0%,0%,0%);fill-opacity:1;" d="M 60 57 L 63 57 L 63 54 L 60 54 Z M 60 57 "/>
<path style=" stroke:none;fill-rule:nonzero;fill:rgb(0%,0%,0%);fill-opacity:1;" d="M 63 57 L 66 57 L 66 54 L 63 54 Z M 63 57 "/>
<path style=" stroke:none;fill-rule:nonzero;fill:rgb(0%,0%,0%);fill-opacity:1;" d="M 66 57 L 69 57 L 69 54 L 66 54 Z M 66 57 "/>
<path style=" stroke:none;fill-rule:nonzero;fill:rgb(0%,0%,0%);fill-opacity:1;" d="M 72 57 L 75 57 L 75 54 L 72 54 Z M 72 57 "/>
<path style=" stroke:none;fill-rule:nonzero;fill:rgb(0%,0%,0%);fill-opacity:1;" d="M 75 57 L 78 57 L 78 54 L 75 54 Z M 75 57 "/>
<path style=" stroke:none;fill-rule:nonzero;fill:rgb(0%,0%,0%);fill-opacity:1;" d="M 78 57 L 81 57 L 81 54 L 78 54 Z M 78 57 "/>
<path style=" stroke:none;fill-rule:nonzero;fill:rgb(0%,0%,0%);fill-opacity:1;" d="M 81 57 L 84 57 L 84 54 L 81 54 Z M 81 57 "/>
<path style=" stroke:none;fill-rule:nonzero;fill:rgb(0%,0%,0%);fill-opacity:1;" d="M 84 57 L 87 57 L 87 54 L 84 54 Z M 84 57 "/>
<path style=" stroke:none;fill-rule:nonzero;fill:rgb(0%,0%,0%);fill-opacity:1;" d="M 12 60 L 15 60 L 15 57 L 12 57 Z M 12 60 "/>
<path style=" stroke:none;fill-rule:nonzero;fill:rgb(0%,0%,0%);fill-opacity:1;" d="M 18 60 L 21 60 L 21 57 L 18 57 Z M 18 60 "/>
<path style=" stroke:none;fill-rule:nonzero;fill:rgb(0%,0%,0%);fill-opacity:1;" d="M 21 60 L 24 60 L 24 57 L 21 57 Z M 21 60 "/>
<path style=" stroke:none;fill-rule:nonzero;fill:rgb(0%,0%,0%);fill-opacity:1;" d="M 33 60 L 36 60 L 36 57 L 33 57 Z M 33 60 "/>
<path style=" stroke:none;fill-rule:nonzero;fill:rgb(0%,0%,0%);fill-opacity:1;" d="M 57 60 L 60 60 L 60 57 L 57 57 Z M 57 60 "/>
<path style=" stroke:none;fill-rule:nonzero;fill:rgb(0%,0%,0%);fill-opacity:1;" d="M 63 60 L 66 60 L 66 57 L 63 57 Z M 63 60 "/>
<path style=" stroke:none;fill-rule:nonzero;fill:rgb(0%,0%,0%);fill-opacity:1;" d="M 66 60 L 69 60 L 69 57 L 66 57 Z M 66 60 "/>
<path style=" stroke:none;fill-rule:nonzero;fill:rgb(0%,0%,0%);fill-opacity:1;" d="M 69 60 L 72 60 L 72 57 L 69 57 Z M 69 60 "/>
<path style=" stroke:none;fill-rule:nonzero;fill:rgb(0%,0%,0%);fill-opacity:1;" d="M 75 60 L 78 60 L 78 57 L 75 57 Z M 75 60 "/>
<path style=" stroke:none;fill-rule:nonzero;fill:rgb(0%,0%,0%);fill-opacity:1;" d="M 78 60 L 81 60 L 81 57 L 78 57 Z M 78 60 "/>
<path style=" stroke:none;fill-rule:nonzero;fill:rgb(0%,0%,0%);fill-opacity:1;" d="M 84 60 L 87 60 L 87 57 L 84 57 Z M 84 60 "/>
<path style=" stroke:none;fill-rule:nonzero;fill:rgb(0%,0%,0%);fill-opacity:1;" d="M 12 63 L 15 63 L 15 60 L 12 60 Z M 12 63 "/>
<path style=" stroke:none;fill-rule:nonzero;fill:rgb(0%,0%,0%);fill-opacity:1;" d="M 21 63 L 24 63 L 24 60 L 21 60 Z M 21 63 "/>
<path style=" stroke:none;fill-rule:nonzero;fill:rgb(0%,0%,0%);fill-opacity:1;" d="M 24 63 L 27 63 L 27 60 L 24 60 Z M 24 63 "/>
<path style=" stroke:none;fill-rule:nonzero;fill:rgb(0%,0%,0%);fill-opacity:1;" d="M 30 63 L 33 63 L 33 60 L 30 60 Z M 30 63 "/>
<path style=" stroke:none;fill-rule:nonzero;fill:rgb(0%,0%,0%);fill-opacity:1;" d="M 33 63 L 36 63 L 36 60 L 33 60 Z M 33 63 "/>
<path style=" stroke:none;fill-rule:nonzero;fill:rgb(0%,0%,0%);fill-opacity:1;" d="M 42 63 L 45 63 L 45 60 L 42 60 Z M 42 63 "/>
<path style=" stroke:none;fill-rule:nonzero;fill:rgb(0%,0%,0%);fill-opacity:1;" d="M 45 63 L 48 63 L 48 60 L 45 60 Z M 45 63 "/>
<path style=" stroke:none;fill-rule:nonzero;fill:rgb(0%,0%,0%);fill-opacity:1;" d="M 48 63 L 51 63 L 51 60 L 48 60 Z M 48 63 "/>
<path style=" stroke:none;fill-rule:nonzero;fill:rgb(0%,0%,0%);fill-opacity:1;" d="M 51 63 L 54 63 L 54 60 L 51 60 Z M 51 63 "/>
<path style=" stroke:none;fill-rule:nonzero;fill:rgb(0%,0%,0%);fill-opacity:1;" d="M 60 63 L 63 63 L 63 60 L 60 60 Z M 60 63 "/>
<path style=" stroke:none;fill-rule:nonzero;fill:rgb(0%,0%,0%);fill-opacity:1;" d="M 63 63 L 66 63 L 66 60 L 63 60 Z M 63 63 "/>
<path style=" stroke:none;fill-rule:nonzero;fill:rgb(0%,0%,0%);fill-opacity:1;" d="M 66 63 L 69 63 L 69 60 L 66 60 Z M 66 63 "/>
<path style=" stroke:none;fill-rule:nonzero;fill:rgb(0%,0%,0%);fill-opacity:1;" d="M 69 63 L 72 63 L 72 60 L 69 60 Z M 69 63 "/>
<path style=" stroke:none;fill-rule:nonzero;fill:rgb(0%,0%,0%);fill-opacity:1;" d="M 72 63 L 75 63 L 75 60 L 72 60 Z M 72 63 "/>
<path style=" stroke:none;fill-rule:nonzero;fill:rgb(0%,0%,0%);fill-opacity:1;" d="M 78 63 L 81 63 L 81 60 L 78 60 Z M 78 63 "/>
<path style=" stroke:none;fill-rule:nonzero;fill:rgb(0%,0%,0%);fill-opacity:1;" d="M 81 63 L 84 63 L 84 60 L 81 60 Z M 81 63 "/>
<path style=" stroke:none;fill-rule:nonzero;fill:rgb(0%,0%,0%);fill-opacity:1;" d="M 36 66 L 39 66 L 39 63 L 36 63 Z M 36 66 "/>
<path style=" stroke:none;fill-rule:nonzero;fill:rgb(0%,0%,0%);fill-opacity:1;" d="M 42 66 L 45 66 L 45 63 L 42 63 Z M 42 66 "/>
<path style=" stroke:none;fill-rule:nonzero;fill:rgb(0%,0%,0%);fill-opacity:1;" d="M 54 66 L 57 66 L 57 63 L 54 63 Z M 54 66 "/>
<path style=" stroke:none;fill-rule:nonzero;fill:rgb(0%,0%,0%);fill-opacity:1;" d="M 60 66 L 63 66 L 63 63 L 60 63 Z M 60 66 "/>
<path style=" stroke:none;fill-rule:nonzero;fill:rgb(0%,0%,0%);fill-opacity:1;" d="M 72 66 L 75 66 L 75 63 L 72 63 Z M 72 66 "/>
<path style=" stroke:none;fill-rule:nonzero;fill:rgb(0%,0%,0%);fill-opacity:1;" d="M 78 66 L 81 66 L 81 63 L 78 63 Z M 78 66 "/>
<path style=" stroke:none;fill-rule:nonzero;fill:rgb(0%,0%,0%);fill-opacity:1;" d="M 81 66 L 84 66 L 84 63 L 81 63 Z M 81 66 "/>
<path style=" stroke:none;fill-rule:nonzero;fill:rgb(0%,0%,0%);fill-opacity:1;" d="M 12 69 L 15 69 L 15 66 L 12 66 Z M 12 69 "/>
<path style=" stroke:none;fill-rule:nonzero;fill:rgb(0%,0%,0%);fill-opacity:1;" d="M 15 69 L 18 69 L 18 66 L 15 66 Z M 15 69 "/>
<path style=" stroke:none;fill-rule:nonzero;fill:rgb(0%,0%,0%);fill-opacity:1;" d="M 18 69 L 21 69 L 21 66 L 18 66 Z M 18 69 "/>
<path style=" stroke:none;fill-rule:nonzero;fill:rgb(0%,0%,0%);fill-opacity:1;" d="M 21 69 L 24 69 L 24 66 L 21 66 Z M 21 69 "/>
<path style=" stroke:none;fill-rule:nonzero;fill:rgb(0%,0%,0%);fill-opacity:1;" d="M 24 69 L 27 69 L 27 66 L 24 66 Z M 24 69 "/>
<path style=" stroke:none;fill-rule:nonzero;fill:rgb(0%,0%,0%);fill-opacity:1;" d="M 27 69 L 30 69 L 30 66 L 27 66 Z M 27 69 "/>
<path style=" stroke:none;fill-rule:nonzero;fill:rgb(0%,0%,0%);fill-opacity:1;" d="M 30 69 L 33 69 L 33 66 L 30 66 Z M 30 69 "/>
<path style=" stroke:none;fill-rule:nonzero;fill:rgb(0%,0%,0%);fill-opacity:1;" d="M 39 69 L 42 69 L 42 66 L 39 66 Z M 39 69 "/>
<path style=" stroke:none;fill-rule:nonzero;fill:rgb(0%,0%,0%);fill-opacity:1;" d="M 45 69 L 48 69 L 48 66 L 45 66 Z M 45 69 "/>
<path style=" stroke:none;fill-rule:nonzero;fill:rgb(0%,0%,0%);fill-opacity:1;" d="M 51 69 L 54 69 L 54 66 L 51 66 Z M 51 69 "/>
<path style=" stroke:none;fill-rule:nonzero;fill:rgb(0%,0%,0%);fill-opacity:1;" d="M 60 69 L 63 69 L 63 66 L 60 66 Z M 60 69 "/>
<path style=" stroke:none;fill-rule:nonzero;fill:rgb(0%,0%,0%);fill-opacity:1;" d="M 66 69 L 69 69 L 69 66 L 66 66 Z M 66 69 "/>
<path style=" stroke:none;fill-rule:nonzero;fill:rgb(0%,0%,0%);fill-opacity:1;" d="M 72 69 L 75 69 L 75 66 L 72 66 Z M 72 69 "/>
<path style=" stroke:none;fill-rule:nonzero;fill:rgb(0%,0%,0%);fill-opacity:1;" d="M 84 69 L 87 69 L 87 66 L 84 66 Z M 84 69 "/>
<path style=" stroke:none;fill-rule:nonzero;fill:rgb(0%,0%,0%);fill-opacity:1;" d="M 12 72 L 15 72 L 15 69 L 12 69 Z M 12 72 "/>
<path style=" stroke:none;fill-rule:nonzero;fill:rgb(0%,0%,0%);fill-opacity:1;" d="M 30 72 L 33 72 L 33 69 L 30 69 Z M 30 72 "/>
<path style=" stroke:none;fill-rule:nonzero;fill:rgb(0%,0%,0%);fill-opacity:1;" d="M 42 72 L 45 72 L 45 69 L 42 69 Z M 42 72 "/>
<path style=" stroke:none;fill-rule:nonzero;fill:rgb(0%,0%,0%);fill-opacity:1;" d="M 51 72 L 54 72 L 54 69 L 51 69 Z M 51 72 "/>
<path style=" stroke:none;fill-rule:nonzero;fill:rgb(0%,0%,0%);fill-opacity:1;" d="M 54 72 L 57 72 L 57 69 L 54 69 Z M 54 72 "/>
<path style=" stroke:none;fill-rule:nonzero;fill:rgb(0%,0%,0%);fill-opacity:1;" d="M 60 72 L 63 72 L 63 69 L 60 69 Z M 60 72 "/>
<path style=" stroke:none;fill-rule:nonzero;fill:rgb(0%,0%,0%);fill-opacity:1;" d="M 72 72 L 75 72 L 75 69 L 72 69 Z M 72 72 "/>
<path style=" stroke:none;fill-rule:nonzero;fill:rgb(0%,0%,0%);fill-opacity:1;" d="M 84 72 L 87 72 L 87 69 L 84 69 Z M 84 72 "/>
<path style=" stroke:none;fill-rule:nonzero;fill:rgb(0%,0%,0%);fill-opacity:1;" d="M 12 75 L 15 75 L 15 72 L 12 72 Z M 12 75 "/>
<path style=" stroke:none;fill-rule:nonzero;fill:rgb(0%,0%,0%);fill-opacity:1;" d="M 18 75 L 21 75 L 21 72 L 18 72 Z M 18 75 "/>
<path style=" stroke:none;fill-rule:nonzero;fill:rgb(0%,0%,0%);fill-opacity:1;" d="M 21 75 L 24 75 L 24 72 L 21 72 Z M 21 75 "/>
<path style=" stroke:none;fill-rule:nonzero;fill:rgb(0%,0%,0%);fill-opacity:1;" d="M 24 75 L 27 75 L 27 72 L 24 72 Z M 24 75 "/>
<path style=" stroke:none;fill-rule:nonzero;fill:rgb(0%,0%,0%);fill-opacity:1;" d="M 30 75 L 33 75 L 33 72 L 30 72 Z M 30 75 "/>
<path style=" stroke:none;fill-rule:nonzero;fill:rgb(0%,0%,0%);fill-opacity:1;" d="M 36 75 L 39 75 L 39 72 L 36 72 Z M 36 75 "/>
<path style=" stroke:none;fill-rule:nonzero;fill:rgb(0%,0%,0%);fill-opacity:1;" d="M 48 75 L 51 75 L 51 72 L 48 72 Z M 48 75 "/>
<path style=" stroke:none;fill-rule:nonzero;fill:rgb(0%,0%,0%);fill-opacity:1;" d="M 54 75 L 57 75 L 57 72 L 54 72 Z M 54 75 "/>
<path style=" stroke:none;fill-rule:nonzero;fill:rgb(0%,0%,0%);fill-opacity:1;" d="M 57 75 L 60 75 L 60 72 L 57 72 Z M 57 75 "/>
<path style=" stroke:none;fill-rule:nonzero;fill:rgb(0%,0%,0%);fill-opacity:1;" d="M 60 75 L 63 75 L 63 72 L 60 72 Z M 60 75 "/>
<path style=" stroke:none;fill-rule:nonzero;fill:rgb(0%,0%,0%);fill-opacity:1;" d="M 63 75 L 66 75 L 66 72 L 63 72 Z M 63 75 "/>
<path style=" stroke:none;fill-rule:nonzero;fill:rgb(0%,0%,0%);fill-opacity:1;" d="M 66 75 L 69 75 L 69 72 L 66 72 Z M 66 75 "/>
<path style=" stroke:none;fill-rule:nonzero;fill:rgb(0%,0%,0%);fill-opacity:1;" d="M 69 75 L 72 75 L 72 72 L 69 72 Z M 69 75 "/>
<path style=" stroke:none;fill-rule:nonzero;fill:rgb(0%,0%,0%);fill-opacity:1;" d="M 72 75 L 75 75 L 75 72 L 72 72 Z M 72 75 "/>
<path style=" stroke:none;fill-rule:nonzero;fill:rgb(0%,0%,0%);fill-opacity:1;" d="M 81 75 L 84 75 L 84 72 L 81 72 Z M 81 75 "/>
<path style=" stroke:none;fill-rule:nonzero;fill:rgb(0%,0%,0%);fill-opacity:1;" d="M 12 78 L 15 78 L 15 75 L 12 75 Z M 12 78 "/>
<path style=" stroke:none;fill-rule:nonzero;fill:rgb(0%,0%,0%);fill-opacity:1;" d="M 18 78 L 21 78 L 21 75 L 18 75 Z M 18 78 "/>
<path style=" stroke:none;fill-rule:nonzero;fill:rgb(0%,0%,0%);fill-opacity:1;" d="M 21 78 L 24 78 L 24 75 L 21 75 Z M 21 78 "/>
<path style=" stroke:none;fill-rule:nonzero;fill:rgb(0%,0%,0%);fill-opacity:1;" d="M 24 78 L 27 78 L 27 75 L 24 75 Z M 24 78 "/>
<path style=" stroke:none;fill-rule:nonzero;fill:rgb(0%,0%,0%);fill-opacity:1;" d="M 30 78 L 33 78 L 33 75 L 30 75 Z M 30 78 "/>
<path style=" stroke:none;fill-rule:nonzero;fill:rgb(0%,0%,0%);fill-opacity:1;" d="M 36 78 L 39 78 L 39 75 L 36 75 Z M 36 78 "/>
<path style=" stroke:none;fill-rule:nonzero;fill:rgb(0%,0%,0%);fill-opacity:1;" d="M 39 78 L 42 78 L 42 75 L 39 75 Z M 39 78 "/>
<path style=" stroke:none;fill-rule:nonzero;fill:rgb(0%,0%,0%);fill-opacity:1;" d="M 45 78 L 48 78 L 48 75 L 45 75 Z M 45 78 "/>
<path style=" stroke:none;fill-rule:nonzero;fill:rgb(0%,0%,0%);fill-opacity:1;" d="M 57 78 L 60 78 L 60 75 L 57 75 Z M 57 78 "/>
<path style=" stroke:none;fill-rule:nonzero;fill:rgb(0%,0%,0%);fill-opacity:1;" d="M 63 78 L 66 78 L 66 75 L 63 75 Z M 63 78 "/>
<path style=" stroke:none;fill-rule:nonzero;fill:rgb(0%,0%,0%);fill-opacity:1;" d="M 66 78 L 69 78 L 69 75 L 66 75 Z M 66 78 "/>
<path style=" stroke:none;fill-rule:nonzero;fill:rgb(0%,0%,0%);fill-opacity:1;" d="M 81 78 L 84 78 L 84 75 L 81 75 Z M 81 78 "/>
<path style=" stroke:none;fill-rule:nonzero;fill:rgb(0%,0%,0%);fill-opacity:1;" d="M 84 78 L 87 78 L 87 75 L 84 75 Z M 84 78 "/>
<path style=" stroke:none;fill-rule:nonzero;fill:rgb(0%,0%,0%);fill-opacity:1;" d="M 12 81 L 15 81 L 15 78 L 12 78 Z M 12 81 "/>
<path style=" stroke:none;fill-rule:nonzero;fill:rgb(0%,0%,0%);fill-opacity:1;" d="M 18 81 L 21 81 L 21 78 L 18 78 Z M 18 81 "/>
<path style=" stroke:none;fill-rule:nonzero;fill:rgb(0%,0%,0%);fill-opacity:1;" d="M 21 81 L 24 81 L 24 78 L 21 78 Z M 21 81 "/>
<path style=" stroke:none;fill-rule:nonzero;fill:rgb(0%,0%,0%);fill-opacity:1;" d="M 24 81 L 27 81 L 27 78 L 24 78 Z M 24 81 "/>
<path style=" stroke:none;fill-rule:nonzero;fill:rgb(0%,0%,0%);fill-opacity:1;" d="M 30 81 L 33 81 L 33 78 L 30 78 Z M 30 81 "/>
<path style=" stroke:none;fill-rule:nonzero;fill:rgb(0%,0%,0%);fill-opacity:1;" d="M 39 81 L 42 81 L 42 78 L 39 78 Z M 39 81 "/>
<path style=" stroke:none;fill-rule:nonzero;fill:rgb(0%,0%,0%);fill-opacity:1;" d="M 45 81 L 48 81 L 48 78 L 45 78 Z M 45 81 "/>
<path style=" stroke:none;fill-rule:nonzero;fill:rgb(0%,0%,0%);fill-opacity:1;" d="M 48 81 L 51 81 L 51 78 L 48 78 Z M 48 81 "/>
<path style=" stroke:none;fill-rule:nonzero;fill:rgb(0%,0%,0%);fill-opacity:1;" d="M 51 81 L 54 81 L 54 78 L 51 78 Z M 51 81 "/>
<path style=" stroke:none;fill-rule:nonzero;fill:rgb(0%,0%,0%);fill-opacity:1;" d="M 54 81 L 57 81 L 57 78 L 54 78 Z M 54 81 "/>
<path style=" stroke:none;fill-rule:nonzero;fill:rgb(0%,0%,0%);fill-opacity:1;" d="M 57 81 L 60 81 L 60 78 L 57 78 Z M 57 81 "/>
<path style=" stroke:none;fill-rule:nonzero;fill:rgb(0%,0%,0%);fill-opacity:1;" d="M 72 81 L 75 81 L 75 78 L 72 78 Z M 72 81 "/>
<path style=" stroke:none;fill-rule:nonzero;fill:rgb(0%,0%,0%);fill-opacity:1;" d="M 75 81 L 78 81 L 78 78 L 75 78 Z M 75 81 "/>
<path style=" stroke:none;fill-rule:nonzero;fill:rgb(0%,0%,0%);fill-opacity:1;" d="M 78 81 L 81 81 L 81 78 L 78 78 Z M 78 81 "/>
<path style=" stroke:none;fill-rule:nonzero;fill:rgb(0%,0%,0%);fill-opacity:1;" d="M 81 81 L 84 81 L 84 78 L 81 78 Z M 81 81 "/>
<path style=" stroke:none;fill-rule:nonzero;fill:rgb(0%,0%,0%);fill-opacity:1;" d="M 84 81 L 87 81 L 87 78 L 84 78 Z M 84 81 "/>
<path style=" stroke:none;fill-rule:nonzero;fill:rgb(0%,0%,0%);fill-opacity:1;" d="M 12 84 L 15 84 L 15 81 L 12 81 Z M 12 84 "/>
<path style=" stroke:none;fill-rule:nonzero;fill:rgb(0%,0%,0%);fill-opacity:1;" d="M 30 84 L 33 84 L 33 81 L 30 81 Z M 30 84 "/>
<path style=" stroke:none;fill-rule:nonzero;fill:rgb(0%,0%,0%);fill-opacity:1;" d="M 36 84 L 39 84 L 39 81 L 36 81 Z M 36 84 "/>
<path style=" stroke:none;fill-rule:nonzero;fill:rgb(0%,0%,0%);fill-opacity:1;" d="M 39 84 L 42 84 L 42 81 L 39 81 Z M 39 84 "/>
<path style=" stroke:none;fill-rule:nonzero;fill:rgb(0%,0%,0%);fill-opacity:1;" d="M 42 84 L 45 84 L 45 81 L 42 81 Z M 42 84 "/>
<path style=" stroke:none;fill-rule:nonzero;fill:rgb(0%,0%,0%);fill-opacity:1;" d="M 45 84 L 48 84 L 48 81 L 45 81 Z M 45 84 "/>
<path style=" stroke:none;fill-rule:nonzero;fill:rgb(0%,0%,0%);fill-opacity:1;" d="M 48 84 L 51 84 L 51 81 L 48 81 Z M 48 84 "/>
<path style=" stroke:none;fill-rule:nonzero;fill:rgb(0%,0%,0%);fill-opacity:1;" d="M 54 84 L 57 84 L 57 81 L 54 81 Z M 54 84 "/>
<path style=" stroke:none;fill-rule:nonzero;fill:rgb(0%,0%,0%);fill-opacity:1;" d="M 57 84 L 60 84 L 60 81 L 57 81 Z M 57 84 "/>
<path style=" stroke:none;fill-rule:nonzero;fill:rgb(0%,0%,0%);fill-opacity:1;" d="M 63 84 L 66 84 L 66 81 L 63 81 Z M 63 84 "/>
<path style=" stroke:none;fill-rule:nonzero;fill:rgb(0%,0%,0%);fill-opacity:1;" d="M 66 84 L 69 84 L 69 81 L 66 81 Z M 66 84 "/>
<path style=" stroke:none;fill-rule:nonzero;fill:rgb(0%,0%,0%);fill-opacity:1;" d="M 69 84 L 72 84 L 72 81 L 69 81 Z M 69 84 "/>
<path style=" stroke:none;fill-rule:nonzero;fill:rgb(0%,0%,0%);fill-opacity:1;" d="M 72 84 L 75 84 L 75 81 L 72 81 Z M 72 84 "/>
<path style=" stroke:none;fill-rule:nonzero;fill:rgb(0%,0%,0%);fill-opacity:1;" d="M 78 84 L 81 84 L 81 81 L 78 81 Z M 78 84 "/>
<path style=" stroke:none;fill-rule:nonzero;fill:rgb(0%,0%,0%);fill-opacity:1;" d="M 81 84 L 84 84 L 84 81 L 81 81 Z M 81 84 "/>
<path style=" stroke:none;fill-rule:nonzero;fill:rgb(0%,0%,0%);fill-opacity:1;" d="M 84 84 L 87 84 L 87 81 L 84 81 Z M 84 84 "/>
<path style=" stroke:none;fill-rule:nonzero;fill:rgb(0%,0%,0%);fill-opacity:1;" d="M 12 87 L 15 87 L 15 84 L 12 84 Z M 12 87 "/>
<path style=" stroke:none;fill-rule:nonzero;fill:rgb(0%,0%,0%);fill-opacity:1;" d="M 15 87 L 18 87 L 18 84 L 15 84 Z M 15 87 "/>
<path style=" stroke:none;fill-rule:nonzero;fill:rgb(0%,0%,0%);fill-opacity:1;" d="M 18 87 L 21 87 L 21 84 L 18 84 Z M 18 87 "/>
<path style=" stroke:none;fill-rule:nonzero;fill:rgb(0%,0%,0%);fill-opacity:1;" d="M 21 87 L 24 87 L 24 84 L 21 84 Z M 21 87 "/>
<path style=" stroke:none;fill-rule:nonzero;fill:rgb(0%,0%,0%);fill-opacity:1;" d="M 24 87 L 27 87 L 27 84 L 24 84 Z M 24 87 "/>
<path style=" stroke:none;fill-rule:nonzero;fill:rgb(0%,0%,0%);fill-opacity:1;" d="M 27 87 L 30 87 L 30 84 L 27 84 Z M 27 87 "/>
<path style=" stroke:none;fill-rule:nonzero;fill:rgb(0%,0%,0%);fill-opacity:1;" d="M 30 87 L 33 87 L 33 84 L 30 84 Z M 30 87 "/>
<path style=" stroke:none;fill-rule:nonzero;fill:rgb(0%,0%,0%);fill-opacity:1;" d="M 36 87 L 39 87 L 39 84 L 36 84 Z M 36 87 "/>
<path style=" stroke:none;fill-rule:nonzero;fill:rgb(0%,0%,0%);fill-opacity:1;" d="M 39 87 L 42 87 L 42 84 L 39 84 Z M 39 87 "/>
<path style=" stroke:none;fill-rule:nonzero;fill:rgb(0%,0%,0%);fill-opacity:1;" d="M 42 87 L 45 87 L 45 84 L 42 84 Z M 42 87 "/>
<path style=" stroke:none;fill-rule:nonzero;fill:rgb(0%,0%,0%);fill-opacity:1;" d="M 48 87 L 51 87 L 51 84 L 48 84 Z M 48 87 "/>
<path style=" stroke:none;fill-rule:nonzero;fill:rgb(0%,0%,0%);fill-opacity:1;" d="M 60 87 L 63 87 L 63 84 L 60 84 Z M 60 87 "/>
<path style=" stroke:none;fill-rule:nonzero;fill:rgb(0%,0%,0%);fill-opacity:1;" d="M 63 87 L 66 87 L 66 84 L 63 84 Z M 63 87 "/>
<path style=" stroke:none;fill-rule:nonzero;fill:rgb(0%,0%,0%);fill-opacity:1;" d="M 66 87 L 69 87 L 69 84 L 66 84 Z M 66 87 "/>
<path style=" stroke:none;fill-rule:nonzero;fill:rgb(0%,0%,0%);fill-opacity:1;" d="M 75 87 L 78 87 L 78 84 L 75 84 Z M 75 87 "/>
<path style=" stroke:none;fill-rule:nonzero;fill:rgb(0%,0%,0%);fill-opacity:1;" d="M 84 87 L 87 87 L 87 84 L 84 84 Z M 84 87 "/>
</g>
</svg>
